<?xml version="1.0" standalone="no"?>
<!DOCTYPE svg PUBLIC "-//W3C//DTD SVG 20010904//EN"
 "http://www.w3.org/TR/2001/REC-SVG-20010904/DTD/svg10.dtd">
<svg version="1.0" xmlns="http://www.w3.org/2000/svg"
 width="760.000000pt" height="760.000000pt" viewBox="0 0 760.000000 760.000000"
 preserveAspectRatio="xMidYMid meet">
<metadata>
Created by potrace 1.14, written by Peter Selinger 2001-2017
</metadata>
<g transform="translate(0.000000,760.000000) scale(0.100000,-0.100000)"
fill="#000000" stroke="none">
<path d="M3276 6391 c-3 -4 -8 -23 -11 -42 -3 -19 -12 -63 -20 -99 -8 -36 -17
-78 -20 -95 -3 -16 -8 -39 -10 -50 -6 -25 -13 -61 -21 -102 -8 -41 -17 -48
-84 -62 -148 -33 -253 -72 -415 -154 -44 -22 -98 -49 -120 -60 -22 -11 -48
-20 -57 -19 -17 1 -190 119 -196 135 -2 4 -8 7 -13 7 -5 0 -32 18 -60 39 -29
22 -61 42 -71 44 -17 5 -80 -41 -178 -130 -19 -17 -46 -41 -60 -53 -139 -119
-210 -187 -210 -200 0 -4 49 -74 110 -155 60 -80 110 -149 110 -152 0 -4 8
-15 17 -25 16 -18 16 -21 -2 -55 -11 -20 -25 -41 -30 -47 -14 -15 -65 -94 -65
-101 0 -3 -10 -22 -23 -43 -24 -39 -88 -179 -91 -199 -1 -7 -5 -16 -9 -19 -15
-15 -7 -42 11 -39 9 2 17 4 17 5 0 1 14 3 30 5 17 1 53 6 80 9 28 4 85 8 128
11 74 3 107 15 107 37 0 10 77 132 106 168 175 213 339 343 566 449 67 31 220
85 268 95 14 3 36 8 50 11 14 3 36 7 50 9 14 2 41 7 60 11 102 19 320 20 445
1 234 -34 458 -121 647 -248 200 -136 357 -307 465 -506 66 -123 91 -194 126
-352 21 -98 24 -105 47 -106 14 -1 124 -4 245 -8 121 -4 261 -9 310 -11 50 -2
153 -7 230 -10 l140 -5 2 42 c4 67 -4 84 -39 98 -18 6 -42 16 -53 21 -11 4
-63 24 -115 44 -210 79 -231 88 -225 93 2 3 0 11 -6 19 -6 7 -9 13 -6 13 3 0
-2 24 -12 53 -10 28 -19 54 -19 57 -3 23 -53 151 -79 205 -32 64 -44 86 -123
224 -19 33 -19 34 1 72 11 22 24 39 29 39 6 0 10 5 10 10 0 6 5 16 10 23 44
50 180 245 180 258 0 14 -189 200 -295 290 -22 19 -53 46 -69 62 -16 15 -37
27 -47 27 -10 0 -57 -25 -104 -55 -46 -30 -89 -55 -94 -55 -5 0 -11 -3 -13 -8
-1 -4 -47 -34 -100 -66 -81 -49 -101 -57 -127 -51 -17 4 -33 10 -36 15 -3 5
-20 16 -38 26 -144 75 -258 129 -333 157 -49 19 -98 38 -109 42 -11 4 -25 9
-31 10 -35 8 -55 18 -63 33 -8 15 -56 200 -66 257 -12 60 -25 113 -34 137
l-10 27 -290 0 c-160 0 -292 -3 -295 -8z"/>
<path d="M2018 4674 c-2 -1 -32 -5 -68 -8 -36 -3 -78 -8 -95 -11 -16 -2 -39
-6 -50 -8 -11 -2 -48 -9 -82 -16 l-61 -13 -61 -94 -60 -94 -58 -1 c-143 -2
-206 -21 -218 -66 -19 -75 -27 -250 -11 -256 6 -3 34 -3 61 -1 28 1 88 5 135
8 47 3 132 8 190 11 58 3 139 8 180 11 68 4 185 10 360 19 66 3 211 13 310 20
30 2 100 7 155 11 55 4 116 8 135 9 41 3 179 15 230 20 19 2 69 6 110 10 41 3
91 8 110 10 228 32 398 35 510 10 27 -6 53 -10 145 -26 33 -5 80 -14 105 -19
25 -5 60 -11 78 -14 30 -4 32 -2 26 17 -22 72 -54 100 -129 111 -46 6 -85 13
-135 23 -19 3 -42 7 -50 8 -13 1 -65 9 -150 22 -14 2 -43 5 -65 8 -22 2 -56 6
-75 9 -45 7 -121 16 -185 21 -27 2 -79 6 -115 9 -36 3 -85 8 -110 11 -111 12
-442 24 -753 26 -131 1 -240 6 -243 10 -2 4 5 33 17 63 16 44 26 57 47 63 15
4 117 7 227 7 182 0 265 -3 425 -20 58 -6 60 -6 155 -19 33 -5 67 -9 75 -10 8
-1 26 -5 40 -8 14 -4 42 -9 64 -12 21 -3 41 -7 45 -9 3 -2 26 -7 51 -10 25 -3
61 -10 80 -16 41 -12 80 -13 80 -2 0 7 -105 43 -145 49 -11 2 -56 13 -100 24
-44 11 -96 22 -115 25 -19 2 -42 7 -50 9 -8 2 -31 7 -50 10 -19 3 -62 10 -95
16 -33 6 -73 13 -88 15 -15 2 -44 5 -65 8 -45 6 -116 14 -202 22 -65 6 -457
14 -462 8z"/>
<path d="M2947 3874 c-1 -1 -162 -5 -357 -9 -485 -9 -775 -17 -1080 -30 -52
-2 -160 -7 -240 -10 -80 -3 -179 -8 -220 -10 -41 -2 -124 -6 -185 -9 -244 -13
-303 -16 -370 -21 -65 -4 -221 -14 -323 -20 -23 -1 -45 -5 -48 -8 -3 -2 -6
-48 -8 -101 -2 -89 1 -100 24 -98 3 0 51 3 105 7 55 3 111 8 125 10 14 2 75 7
135 11 116 7 137 9 278 19 49 3 116 8 150 10 34 2 105 6 157 10 52 3 124 8
160 10 36 2 110 6 165 10 241 14 418 24 572 30 54 2 154 7 223 10 762 33 1441
47 2344 49 l560 1 1 26 c1 15 -3 42 -9 60 -13 39 44 33 -441 45 -260 6 -1713
12 -1718 8z"/>
<path d="M5315 3793 c2 -30 6 -58 10 -61 3 -3 63 -7 133 -9 70 -1 186 -4 257
-6 72 -2 135 -3 140 0 8 2 11 57 6 104 -1 3 -7 6 -13 6 -7 1 -78 4 -158 8 -80
3 -198 8 -262 10 l-118 3 5 -55z"/>
<path d="M6063 3765 c0 -30 3 -55 6 -56 17 -2 142 -7 556 -22 l40 -2 3 53 3
52 -43 1 c-24 1 -70 3 -103 4 -60 4 -200 11 -371 20 l-90 4 -1 -54z"/>
<path d="M6885 3770 c-9 -14 -9 -75 -1 -89 4 -6 17 -10 29 -9 30 1 346 -16
512 -28 44 -4 89 -6 100 -6 20 1 54 38 55 60 0 6 5 12 12 12 7 0 8 3 2 9 -9 8
-92 17 -269 27 -44 3 -98 7 -120 9 -22 3 -98 7 -169 10 -71 3 -133 8 -137 11
-4 2 -11 -1 -14 -6z"/>
<path d="M196 3168 c-83 -27 -121 -60 -158 -136 l-33 -67 0 -765 c0 -847 -2
-821 65 -902 26 -31 92 -72 140 -87 8 -3 139 -6 290 -8 205 -2 288 1 325 11
136 36 196 111 212 266 5 53 5 399 -1 408 -2 4 -103 8 -223 7 l-218 0 -3 -214
c-2 -162 -6 -220 -16 -236 -19 -28 -75 -32 -104 -6 l-22 19 0 740 c1 814 -4
760 63 769 23 3 41 -2 56 -14 21 -17 22 -23 22 -210 l-1 -193 225 0 c207 0
225 1 226 18 3 90 -1 317 -6 352 -15 110 -52 178 -117 218 -68 42 -130 49
-404 49 -229 0 -266 -2 -318 -19z"/>
<path d="M1270 2194 l0 -994 223 0 222 0 0 203 c0 144 4 211 12 228 7 13 22
49 32 79 11 30 33 91 49 135 16 44 49 133 73 199 l44 119 3 -482 2 -481 220 0
220 0 0 78 c1 100 1 1837 0 1879 l0 31 -219 0 -219 1 -2 -194 c-1 -193 -1
-194 -34 -287 -52 -144 -106 -291 -113 -308 -3 -8 -7 -17 -8 -20 -1 -3 -4 -12
-8 -20 -3 -8 -16 -43 -28 -77 -12 -35 -23 -63 -24 -63 -1 0 -2 210 -3 468 0
257 -1 474 -1 484 -1 15 -23 16 -221 16 l-220 0 0 -994z"/>
<path d="M2589 3182 c-1 -4 -2 -452 -3 -995 l-1 -988 415 3 415 3 57 27 c92
43 127 87 151 195 17 75 16 697 -1 758 -26 91 -91 161 -174 186 -61 19 -83 21
-245 22 -161 1 -161 1 -166 24 -2 13 0 26 5 29 4 3 6 9 3 14 -3 5 -5 37 -5 72
0 35 1 71 1 81 0 9 -1 78 -1 152 -1 74 1 138 4 144 4 5 2 12 -3 15 -5 3 -7 14
-4 25 4 18 19 19 275 19 149 1 272 3 275 5 3 4 6 151 4 199 -1 15 -42 16 -501
16 -275 0 -501 -3 -501 -6z m569 -1036 l25 -24 -1 -309 c0 -169 -1 -316 -1
-326 -2 -35 -47 -67 -94 -67 -40 0 -45 3 -49 25 -3 14 -1 25 3 25 5 0 5 11 0
23 -5 13 -5 30 -1 37 5 8 6 18 3 24 -3 5 -5 50 -4 100 1 50 2 98 2 106 -2 80
-2 279 0 286 1 5 0 14 -1 19 -6 30 0 99 9 105 23 14 85 0 109 -24z"/>
<path d="M4029 3162 c0 -15 -2 -34 -4 -42 -1 -8 -6 -46 -10 -85 -4 -38 -9 -86
-11 -105 -2 -19 -6 -57 -8 -84 -3 -27 -8 -65 -10 -85 -3 -20 -8 -65 -11 -101
-4 -36 -8 -76 -10 -90 -2 -14 -7 -54 -10 -90 -3 -36 -8 -76 -10 -90 -2 -14 -7
-54 -11 -90 -3 -36 -7 -76 -9 -90 -2 -14 -6 -54 -9 -90 -4 -36 -9 -76 -11 -90
-3 -22 -8 -69 -21 -189 -2 -20 -6 -56 -8 -81 -3 -25 -8 -70 -11 -100 -3 -30
-8 -73 -11 -95 -2 -22 -7 -65 -10 -95 -3 -30 -7 -66 -8 -80 -2 -14 -7 -56 -11
-95 -4 -38 -8 -74 -9 -80 -1 -12 394 -19 405 -8 4 5 10 53 13 108 9 132 15
216 22 295 3 36 6 76 7 90 2 25 3 25 102 27 l100 3 1 -38 c2 -46 13 -199 19
-267 3 -27 7 -88 9 -135 l4 -85 207 -3 207 -2 -6 62 c-3 35 -8 79 -10 98 -3
19 -7 62 -11 95 -3 33 -8 71 -10 85 -2 14 -7 54 -10 90 -3 36 -8 81 -10 100
-2 19 -7 60 -10 90 -4 30 -10 87 -15 125 -4 39 -8 77 -8 85 -1 8 -3 35 -6 60
-4 25 -9 68 -12 95 -6 50 -8 71 -19 175 -7 68 -15 134 -21 180 -3 19 -7 58 -9
85 -3 49 -11 120 -20 180 -2 17 -7 62 -11 100 -3 39 -8 78 -9 87 -2 9 -6 49
-10 90 -3 40 -8 80 -11 89 -4 15 -38 17 -334 17 l-330 1 -1 -27z m344 -229 c3
-5 8 -53 11 -108 9 -140 16 -237 19 -260 2 -17 -4 -20 -38 -20 -47 0 -45 -33
-20 300 1 17 3 45 4 63 1 29 14 42 24 25z m-18 -533 c-4 -6 2 -7 18 -1 13 5
28 6 33 3 10 -8 10 -7 19 -152 4 -58 9 -130 11 -160 12 -150 13 -140 -12 -141
-13 -1 -35 -1 -49 -1 -14 0 -41 0 -60 1 l-34 1 3 53 c3 28 8 99 11 157 4 58 9
116 10 130 2 14 4 44 4 67 1 35 5 42 24 46 12 2 23 5 25 6 2 0 0 -3 -3 -9z"/>
<path d="M5248 3186 c0 0 -2 -361 -3 -801 -2 -803 -4 -853 -38 -896 -17 -22
-51 -39 -79 -39 -24 0 -24 0 -23 -122 l0 -123 588 -3 c466 -2 587 0 588 10 1
7 2 64 3 125 l1 113 -43 0 -43 0 3 119 c2 66 0 117 -4 115 -3 -2 -4 4 -2 13 9
36 9 951 0 946 -5 -4 -6 -1 -2 5 6 9 8 158 6 483 l0 57 -475 0 c-261 0 -476
-1 -477 -2z m538 -976 l0 -760 -63 0 c-53 0 -63 3 -63 18 0 9 -2 351 -3 760
l-2 742 66 0 65 0 0 -760z"/>
<path d="M6500 3116 c-1 -102 -1 -1801 0 -1863 l0 -53 220 0 220 0 1 78 c0 42
0 127 0 187 -2 125 -5 109 84 350 36 99 77 210 90 247 13 37 28 74 33 83 5 10
9 -162 10 -452 0 -257 1 -474 1 -480 1 -10 52 -13 221 -13 l220 0 0 994 0 994
-220 0 c-199 1 -220 -1 -221 -16 0 -9 -2 -100 -3 -202 -2 -148 -6 -194 -20
-230 -10 -25 -19 -49 -20 -55 -1 -5 -8 -21 -16 -35 -7 -14 -12 -25 -11 -25 3
0 -117 -338 -139 -390 -4 -11 -8 170 -8 415 -1 239 -1 458 -1 486 l-1 52 -220
0 -220 0 0 -72z"/>
</g>
</svg>
