<svg xmlns="http://www.w3.org/2000/svg" viewBox="0 0 1000 1000"><path fill="#ccd2d6" d="m355.94,609.46v54.15h-17.27c-7.64,0-13.84,6.03-13.84,13.48v38.74c-11.94-4.93-38.35-19.64-34.92-52.6,3.65-35.18,38.05-49.81,49.67-53.77h16.36Z" opacity=".5"/><path fill="#ccd2d6" d="m327.83,720.31l-4.15-1.71c-12.27-5.07-40.41-20.63-36.76-55.68,3.86-37.21,40.54-52.5,51.69-56.3l.47-.16h19.86v60.15h-20.27c-5.98,0-10.84,4.7-10.84,10.48v43.22Zm12.25-107.85c-10.81,3.76-43.75,17.9-47.19,51.08-2.87,27.58,16.79,41.66,28.94,47.64v-34.09c0-9.09,7.55-16.48,16.84-16.48h14.27v-48.15h-12.86Z"/><path fill="#ccd2d6" d="m746.77,260.28h-432.98c-23.67,0-42.86,18.68-42.86,41.71v190.13h2.78c7.54,0,13.88,5.49,14.76,12.77,3.14,25.85,18.92,81.9,96.56,81.9h102.98c12.99,0,23.24-10.35,23.41-22.98.06-4.11,1.8-7.84,4.57-10.54,2.82-2.75,6.73-4.45,11.04-4.45h9.24c8.54,0,15.69,6.68,15.61,14.99-.06,6.37,2.58,12.15,6.86,16.31,4.23,4.12,10.09,6.68,16.55,6.68h92.57v-14.51c0-5.93,4.95-10.75,11.05-10.75h19.16c6.1,0,11.05,4.82,11.05,10.75v-73.14c0-5.95,4.95-10.75,11.05-10.75h19.16c6.1,0,11.05,4.81,11.05,10.75v-20.25c0-5.95,4.95-10.75,11.07-10.75h19.15c3.71,0,6.99,1.77,8.98,4.5v-170.65c0-23.03-19.19-41.71-42.86-41.71Zm-26.25,119.44c-9.02,41.59-46.97,72.82-92.41,72.82s-83.38-31.23-92.4-72.82c-.55-2.52-.46-5,.17-7.29h-20.41c.63,2.29.73,4.77.17,7.29-9.02,41.59-46.97,72.82-92.4,72.82s-83.39-31.23-92.41-72.82c-2.13-9.8,5.42-19.06,15.72-19.06h358.21c10.31,0,17.87,9.27,15.74,19.06Z" opacity=".5"/><path fill="#ccd2d6" d="m670.89,589.79h-95.57c-7.05,0-13.67-2.67-18.64-7.53-5.08-4.92-7.84-11.49-7.77-18.48.03-3.03-1.18-5.92-3.39-8.15-2.4-2.42-5.76-3.8-9.23-3.8h-9.24c-3.39,0-6.56,1.28-8.95,3.6-2.32,2.25-3.62,5.25-3.66,8.43-.2,14.3-12.04,25.94-26.41,25.94h-102.98c-80.57,0-96.45-59.12-99.54-84.54-.7-5.78-5.77-10.13-11.79-10.13h-5.78v-193.13c0-24.65,20.57-44.71,45.86-44.71h432.98c25.29,0,45.86,20.06,45.86,44.71v179.81l-5.42-7.39c-1.5-2.05-3.96-3.27-6.56-3.27h-19.15c-4.45,0-8.07,3.48-8.07,7.75v20.25h-6c0-4.28-3.61-7.75-8.05-7.75h-19.16c-4.44,0-8.05,3.48-8.05,7.75v73.14h-6c0-4.28-3.61-7.75-8.05-7.75h-19.16c-4.44,0-8.05,3.48-8.05,7.75v17.51Zm-143.84-43.97h9.24c5.06,0,9.97,2.03,13.49,5.58,3.35,3.38,5.17,7.79,5.13,12.43-.05,5.34,2.06,10.35,5.95,14.13,3.86,3.76,8.99,5.83,14.46,5.83h89.57v-11.51c0-7.58,6.3-13.75,14.05-13.75h19.16c2.99,0,5.77.92,8.05,2.49v-61.87c0-7.58,6.3-13.75,14.05-13.75h19.16c2.99,0,5.77.92,8.05,2.49v-8.98c0-7.58,6.31-13.75,14.07-13.75h19.15c2.09,0,4.13.46,5.98,1.31v-164.47c0-21.35-17.88-38.71-39.86-38.71h-432.98c-21.98,0-39.86,17.37-39.86,38.71v187.13c8.95.1,16.46,6.69,17.53,15.4,2.9,23.83,17.81,79.26,93.58,79.26h102.98c11.29,0,20.26-8.8,20.41-20.02.07-4.79,2.02-9.28,5.48-12.65,3.51-3.42,8.17-5.3,13.13-5.3Z"/><path fill="#ccd2d6" d="m628.11,455.55c-22.46,0-44.38-7.62-61.73-21.47-17.12-13.67-29.05-32.75-33.6-53.72-.36-1.64-.5-3.29-.41-4.93h-13.38c.09,1.64-.05,3.29-.41,4.93-9.45,43.56-49.54,75.18-95.33,75.18-22.47,0-44.39-7.62-61.74-21.47-17.12-13.67-29.06-32.75-33.6-53.72-1.2-5.51.15-11.2,3.7-15.6,3.63-4.51,9.08-7.09,14.96-7.09h358.21c5.88,0,11.33,2.59,14.97,7.1,3.55,4.4,4.9,10.09,3.7,15.6h0c-9.45,43.57-49.55,75.19-95.34,75.19Zm-116.57-86.11h28.28l-1.04,3.79c-.52,1.91-.57,3.88-.14,5.85,8.86,40.84,46.48,70.47,89.47,70.47s80.62-29.63,89.48-70.46h0c.81-3.73-.1-7.58-2.51-10.57-2.49-3.09-6.24-4.86-10.3-4.86h-358.21c-4.05,0-7.8,1.77-10.28,4.86-2.41,2.99-3.32,6.84-2.51,10.57,8.86,40.83,46.49,70.46,89.48,70.46s80.61-29.63,89.47-70.46c.44-1.98.39-3.95-.13-5.86l-1.04-3.79Z"/><rect width="48.92" height="119.69" x="222.02" y="372.44" fill="#ccd2d6"/><rect width="48.92" height="119.69" x="789.63" y="372.44" fill="#ccd2d6"/><rect width="201.65" height="38.52" x="431.06" y="221.77" fill="#ccd2d6" opacity=".5"/><path fill="#ccd2d6" d="m635.71,263.29h-207.65v-44.52h207.65v44.52Zm-201.65-6h195.65v-32.52h-195.65v32.52Z"/><path fill="#ccd2d6" d="m511.43,118.22h40.92c26.72,0,48.4,21.69,48.4,48.4v55.14h-137.73v-55.14c0-26.72,21.69-48.4,48.4-48.4Z" opacity=".75"/><path fill="#ccd2d6" d="m603.75,224.77h-143.73v-58.14c0-28.34,23.06-51.4,51.4-51.4h40.92c28.34,0,51.4,23.06,51.4,51.4v58.14Zm-137.73-6h131.73v-52.14c0-25.04-20.37-45.4-45.4-45.4h-40.92c-25.04,0-45.4,20.37-45.4,45.4v52.14Z"/><path fill="#ccd2d6" d="m583.05,181.24c-1.39,0-2.63-.97-2.93-2.38-7.16-33.84-31-40.42-31.24-40.48-1.6-.42-2.56-2.06-2.15-3.66.42-1.6,2.05-2.56,3.66-2.15,1.13.29,27.68,7.61,35.6,45.04.34,1.62-.69,3.21-2.31,3.56-.21.04-.42.07-.62.07Z"/><path fill="#ccd2d6" d="m584.77,206.39c-1.66,0-3-1.34-3-3v-14.49c0-1.66,1.34-3,3-3s3,1.34,3,3v14.49c0,1.66-1.34,3-3,3Z"/><path fill="#ccd2d6" d="m720.52,379.72c-9.02,41.59-46.98,72.82-92.4,72.82s-83.38-31.23-92.4-72.82c-.55-2.52-.46-5,.17-7.29h-20.4c.63,2.3.73,4.78.17,7.29-9.02,41.59-46.98,72.82-92.4,72.82s-83.38-31.23-92.4-72.82c-2.13-9.8,5.42-19.06,15.72-19.06h358.21c10.31,0,17.87,9.26,15.73,19.06Z"/><path fill="#ccd2d6" d="m517.21,517.03c-1.05,0-2.07-.55-2.62-1.53-.81-1.44-.3-3.27,1.15-4.08,1.7-.95,41.93-23.13,79.1-10.11,1.56.55,2.39,2.26,1.84,3.82-.55,1.57-2.26,2.39-3.82,1.84-34.58-12.11-73.79,9.46-74.18,9.68-.46.26-.97.38-1.46.38Z"/><path fill="#ccd2d6" d="m440.54,351.75c-26.51,0-59.65-10.26-61.53-10.85-1.58-.5-2.46-2.18-1.97-3.76.5-1.58,2.18-2.46,3.76-1.97.6.19,59.9,18.55,80.73,6.62,1.44-.82,3.27-.33,4.09,1.11.82,1.44.33,3.27-1.11,4.09-6.04,3.46-14.59,4.74-23.98,4.74Z"/><path fill="#ccd2d6" d="m607.25,351.75c-9.39,0-17.94-1.29-23.98-4.74-1.44-.82-1.94-2.66-1.11-4.09.82-1.44,2.66-1.94,4.09-1.11,20.84,11.93,80.13-6.43,80.73-6.62,1.58-.49,3.26.38,3.76,1.97s-.38,3.26-1.97,3.76c-1.87.59-35.02,10.85-61.53,10.85Z"/><path fill="#ccd2d6" d="m667.89,651.81v-42.36h-101.64l-4.68,31.13c-.53,3.43-2.26,6.43-4.74,8.61l19.01,80.47c.69,2.96-.28,6.04-2.58,8.13l-37.03,33.46c-3.36,3.02-8.53,3.02-11.88,0l-37.05-33.46c-2.29-2.09-3.27-5.17-2.58-8.13l6.95-29.37h-1.17c-2.91,0-5.26-2.3-5.26-5.13,0-1.41.58-2.69,1.55-3.63.94-.91,2.26-1.49,3.71-1.49h3.59l9.69-41.03c-2.34-2.15-3.97-5.02-4.5-8.32l-4.97-31.23h-138.37v54.16h7.28c7.64,0,13.84,6.03,13.84,13.48v61.11c0,2.01-.46,3.94-1.28,5.66-2.19,4.62-6.99,7.82-12.56,7.82h-5.77c5.3,19.84,23.82,34.48,45.87,34.48h253.92c26.17,0,47.38-20.65,47.38-46.11v-49.76c-20.54-1.45-36.73-18.12-36.73-38.47Zm-216.8,41.36c-8.35,13.02-19.99,18.66-25.85,20.8-2.37.85-4.99.85-7.38,0-5.85-2.15-17.5-7.78-25.85-20.8-7.89-12.34-9.9-29.7-10.38-39.52-.22-4.45,2.45-8.55,6.69-10.22l29.19-11.5c2.6-1.01,5.48-1.01,8.07,0l29.19,11.5c4.24,1.67,6.93,5.77,6.7,10.22-.47,9.82-2.49,27.18-10.39,39.52Z" opacity=".5"/><path fill="#ccd2d6" d="m657.24,789.16h-253.92c-22.94,0-42.99-15.09-48.76-36.71l-1.01-3.77h9.67c4.22,0,8.09-2.4,9.85-6.1.65-1.35.99-2.86.99-4.37v-61.11c0-5.78-4.86-10.48-10.84-10.48h-10.28v-60.16h143.93l5.37,33.76c.41,2.54,1.64,4.82,3.56,6.58l1.3,1.19-10.64,45.05h-5.96c-.61,0-1.2.23-1.62.64-.29.29-.64.78-.64,1.48,0,1.18,1.01,2.13,2.26,2.13h4.96l-7.82,33.06c-.44,1.91.18,3.86,1.68,5.22l37.05,33.46c2.2,1.98,5.65,1.98,7.86,0l37.02-33.46c1.49-1.35,2.11-3.31,1.66-5.22l-19.43-82.22,1.36-1.19c2.02-1.77,3.35-4.19,3.76-6.81l5.06-33.67h107.22v45.36c0,18.55,14.91,34.14,33.95,35.48l2.79.2v52.55c0,27.08-22.6,49.11-50.38,49.11Zm-295.69-34.48c6.28,16.95,22.91,28.48,41.77,28.48h253.92c24.47,0,44.38-19.34,44.38-43.11v-47.05c-20.81-2.83-36.73-20.41-36.73-41.18v-39.36h-96.06l-4.3,28.57c-.53,3.41-2.07,6.59-4.4,9.12l18.62,78.83c.94,4.01-.4,8.24-3.48,11.04l-37.04,33.47c-4.54,4.08-11.38,4.08-15.9,0l-37.06-33.46c-3.09-2.81-4.42-7.03-3.49-11.04l6.17-26.08c-3.32-1.05-5.73-4.13-5.73-7.74,0-2.19.87-4.24,2.46-5.78,1.55-1.51,3.61-2.34,5.8-2.34h1.21l8.76-37.11c-2.2-2.47-3.63-5.47-4.16-8.77l-4.56-28.71h-132.81v48.16h4.28c9.29,0,16.84,7.39,16.84,16.48v61.11c0,2.41-.55,4.82-1.58,6.96-2.74,5.78-8.74,9.52-15.26,9.52h-1.67Z"/><path fill="#ccd2d6" d="m421.55,717.62c-1.59,0-3.18-.27-4.7-.81-6.49-2.38-18.63-8.38-27.37-22.01-8.33-13.03-10.37-31.28-10.85-40.99-.29-5.73,3.17-11.02,8.59-13.15l29.19-11.5c3.33-1.29,6.96-1.29,10.26,0l29.2,11.5c5.43,2.13,8.89,7.42,8.6,13.16-.46,9.69-2.49,27.91-10.86,40.99h0c-8.75,13.64-20.89,19.64-27.35,22-1.52.55-3.12.82-4.72.82Zm0-83.43c-1,0-2,.18-2.96.56l-29.18,11.49c-3.03,1.19-4.95,4.11-4.79,7.27.45,9.12,2.33,26.19,9.91,38.05,7.79,12.14,18.6,17.49,24.36,19.6,1.71.61,3.62.61,5.33,0,5.73-2.1,16.54-7.44,24.34-19.6,7.62-11.9,9.48-28.94,9.92-38.04.16-3.17-1.77-6.09-4.8-7.28l-29.2-11.5c-.94-.37-1.93-.55-2.93-.55Zm29.54,58.99h0,0Z"/><path fill="#ccd2d6" d="m573.26,737.78l-37.03,33.47c-3.36,3.02-8.52,3.02-11.88,0l-37.05-33.47c-2.29-2.08-3.27-5.16-2.58-8.13l6.94-29.37h20.46c1.45,0,2.77-.57,3.71-1.51.97-.93,1.55-2.21,1.55-3.63,0-2.82-2.36-5.12-5.26-5.12h-18.04l9.69-41.03c2.67,2.44,6.26,3.92,10.17,3.92h32.93c3.8,0,7.3-1.4,9.94-3.74l19.01,80.48c.7,2.96-.28,6.05-2.58,8.13Z"/><path fill="#ccd2d6" d="m566.24,609.46l-4.68,31.12c-.53,3.43-2.25,6.44-4.74,8.61-2.65,2.34-6.15,3.74-9.94,3.74h-32.93c-3.91,0-7.5-1.48-10.17-3.92-2.35-2.15-3.97-5.02-4.5-8.32l-4.97-31.23h71.93Z"/><path fill="#ccd2d6" d="m517.39,695.15c0,1.41-.58,2.7-1.55,3.63-.94.94-2.26,1.51-3.71,1.51h-21.62c-2.9,0-5.26-2.3-5.26-5.14,0-1.41.58-2.69,1.55-3.63.94-.91,2.26-1.49,3.71-1.49h21.62c2.9,0,5.26,2.3,5.26,5.12Z" opacity=".5"/><path fill="#ccd2d6" d="m512.13,703.29h-21.62c-4.56,0-8.26-3.65-8.26-8.14,0-2.18.87-4.23,2.46-5.78,1.53-1.49,3.65-2.35,5.81-2.35h21.62c4.56,0,8.26,3.64,8.26,8.12,0,2.21-.88,4.26-2.47,5.79-1.49,1.49-3.56,2.34-5.79,2.34Zm-21.62-10.26c-.61,0-1.2.24-1.62.64-.29.29-.64.77-.64,1.48,0,1.18,1.02,2.14,2.26,2.14h21.62c.62,0,1.19-.22,1.59-.63.45-.43.67-.95.67-1.51,0-1.17-1.02-2.12-2.26-2.12h-21.62Z"/><path fill="#ccd2d6" d="m461.48,653.65c-.47,9.83-2.49,27.19-10.39,39.52-8.35,13.03-19.99,18.66-25.85,20.8-2.38.86-4.99.86-7.38,0-5.86-2.15-17.5-7.78-25.85-20.8-7.9-12.33-9.9-29.69-10.39-39.52-.21-4.44,2.46-8.54,6.7-10.22l29.19-11.49c2.59-1.01,5.48-1.01,8.07,0l29.19,11.49c4.24,1.67,6.93,5.77,6.7,10.22Z" opacity=".25"/><g opacity=".75"><path fill="#ccd2d6" d="m667.89,586.79v22.66h-354.1c-23.67,0-42.86-18.67-42.86-41.7v-75.63h2.78c7.54,0,13.88,5.49,14.76,12.77,3.14,25.85,18.92,81.9,96.56,81.9h102.98c12.99,0,23.24-10.35,23.41-22.98.06-4.11,1.8-7.84,4.57-10.54,2.82-2.75,6.73-4.45,11.04-4.45h9.24c8.54,0,15.69,6.68,15.61,14.99-.06,6.37,2.58,12.15,6.86,16.31,4.23,4.12,10.09,6.68,16.55,6.68h92.57Z"/></g><path fill="#ccd2d6" d="m670.89,612.45h-357.1c-25.29,0-45.86-20.05-45.86-44.7v-78.63h5.78c9.04,0,16.67,6.62,17.74,15.41,2.9,23.83,17.81,79.26,93.58,79.26h102.98c11.29,0,20.26-8.8,20.41-20.02.07-4.79,2.02-9.28,5.48-12.65,3.51-3.42,8.17-5.3,13.13-5.3h9.24c5.06,0,9.97,2.03,13.49,5.58,3.35,3.38,5.17,7.79,5.12,12.43-.05,5.34,2.06,10.35,5.95,14.13,3.86,3.76,8.99,5.83,14.46,5.83h95.57v28.66Zm-396.96-117.33v72.63c0,21.34,17.88,38.7,39.86,38.7h351.1v-16.66h-89.57c-7.05,0-13.67-2.67-18.64-7.53-5.08-4.92-7.84-11.49-7.77-18.48.03-3.03-1.18-5.92-3.39-8.15-2.4-2.42-5.76-3.8-9.23-3.8h-9.24c-3.39,0-6.56,1.28-8.95,3.6-2.32,2.25-3.62,5.25-3.66,8.43-.2,14.3-12.04,25.94-26.41,25.94h-102.98c-80.57,0-96.45-59.12-99.54-84.54-.7-5.71-5.65-10.03-11.57-10.13Z"/><g><rect width="79.29" height="54.72" x="407.11" y="786.16" fill="#ccd2d6" opacity=".75"/><rect width="79.29" height="54.72" x="576.95" y="786.16" fill="#ccd2d6" opacity=".75" transform="rotate(-180 616.59 813.52)"/><path fill="#ccd2d6" d="m489.4,843.88h-85.29v-60.72h85.29v60.72Zm-79.29-6h73.29v-48.72h-73.29v48.72Z"/><path fill="#ccd2d6" d="m659.23,843.88h-85.29v-60.72h85.29v60.72Zm-79.29-6h73.29v-48.72h-73.29v48.72Z"/><path fill="#ccd2d6" d="m484.15,840.88h-124.46c-7.29,0-13.2,5.34-13.2,11.92v16.94c0,6.59,5.91,11.92,13.2,11.92h124.46c7.29,0,13.2-5.34,13.2-11.92v-16.94c0-6.59-5.91-11.92-13.2-11.92Z"/><path fill="#ccd2d6" d="m703.65,840.88h-124.46c-7.29,0-13.2,5.34-13.2,11.92v16.94c0,6.59,5.91,11.92,13.2,11.92h124.46c7.29,0,13.2-5.34,13.2-11.92v-16.94c0-6.59-5.91-11.92-13.2-11.92Z"/></g><g><path fill="#ccd2d6" d="m874.23,547.24v104.57c0,21.31-17.74,38.57-39.64,38.57h-127.06c-.97,0-1.95-.04-2.91-.1-20.54-1.45-36.73-18.12-36.73-38.47v-79.53c0-5.93,4.95-10.75,11.05-10.75h19.16c6.1,0,11.05,4.82,11.05,10.75v-73.14c0-5.95,4.95-10.75,11.05-10.75h19.16c6.1,0,11.05,4.81,11.05,10.75v-20.25c0-5.95,4.95-10.75,11.07-10.75h19.15c3.71,0,6.99,1.77,8.98,4.5,1.31,1.76,2.07,3.92,2.07,6.26v20.25c0-5.95,4.95-10.75,11.07-10.75h19.15c6.11,0,11.05,4.81,11.05,10.75v48.09c0-5.93,4.95-10.75,11.07-10.75h19.15c6.11,0,11.05,4.82,11.05,10.75Z" opacity=".25"/><path fill="#ccd2d6" d="m834.59,693.38h-127.06c-.97,0-2.02-.03-3.1-.1-22.19-1.57-39.55-19.78-39.55-41.47v-79.53c0-7.58,6.3-13.75,14.05-13.75h19.16c2.99,0,5.77.92,8.05,2.49v-61.87c0-7.58,6.3-13.75,14.05-13.75h19.16c2.99,0,5.77.92,8.05,2.49v-8.98c0-7.58,6.31-13.75,14.07-13.75h19.15c4.51,0,8.77,2.14,11.4,5.72,1.73,2.34,2.65,5.12,2.65,8.03v8.99c2.29-1.57,5.07-2.49,8.07-2.49h19.15c7.75,0,14.05,6.17,14.05,13.75v36.83c2.29-1.57,5.07-2.49,8.07-2.49h19.15c7.75,0,14.05,6.17,14.05,13.75v104.57c0,22.92-19.13,41.57-42.64,41.57Zm-155.65-128.85c-4.44,0-8.05,3.48-8.05,7.75v79.53c0,18.55,14.91,34.14,33.95,35.48.93.06,1.85.09,2.7.09h127.06c20.21,0,36.64-15.96,36.64-35.57v-104.57c0-4.28-3.61-7.75-8.05-7.75h-19.15c-4.45,0-8.07,3.48-8.07,7.75h-6v-48.09c0-4.28-3.61-7.75-8.05-7.75h-19.15c-4.45,0-8.07,3.48-8.07,7.75h-6v-20.25c0-1.62-.51-3.17-1.48-4.47-1.51-2.06-3.97-3.28-6.57-3.28h-19.15c-4.45,0-8.07,3.48-8.07,7.75v20.25h-6c0-4.28-3.61-7.75-8.05-7.75h-19.16c-4.44,0-8.05,3.48-8.05,7.75v73.14h-6c0-4.28-3.61-7.75-8.05-7.75h-19.16Z"/><path fill="#ccd2d6" d="m844.46,643.38c-.95,0-1.88-.45-2.46-1.29-12.55-18.02-35.17-29.63-67.24-34.5-26.16-3.97-51.21-2.15-60.76-1.19-2.08.21-4.15-.47-5.69-1.86-1.51-1.36-2.37-3.3-2.37-5.31v-29.16c0-1.66,1.34-3,3-3s3,1.34,3,3v29.16c0,.42.21.7.39.86.17.15.53.39,1.06.34,23.43-2.37,102.32-6.62,133.54,38.22.95,1.36.61,3.23-.75,4.18-.52.36-1.12.54-1.71.54Z"/><path fill="#ccd2d6" d="m835.23,575.29h-126.07c-1.66,0-3-1.34-3-3s1.34-3,3-3h126.07c1.66,0,3,1.34,3,3s-1.34,3-3,3Z"/><path fill="#ccd2d6" d="m750.21,575.29c-1.66,0-3-1.34-3-3v-75.25c0-1.66,1.34-3,3-3s3,1.34,3,3v75.25c0,1.66-1.34,3-3,3Z"/><path fill="#ccd2d6" d="m792.44,575.29c-1.66,0-3-1.34-3-3v-75.25c0-1.66,1.34-3,3-3s3,1.34,3,3v75.25c0,1.66-1.34,3-3,3Z"/><path fill="#ccd2d6" d="m833.13,575.29c-1.66,0-3-1.34-3-3v-40.48c0-1.66,1.34-3,3-3s3,1.34,3,3v40.48c0,1.66-1.34,3-3,3Z"/></g><g><path fill="#ccd2d6" d="m377.06,677.09v61.11c0,2.01-.46,3.94-1.28,5.66-2.19,4.62-6.99,7.82-12.56,7.82h-24.55c-7.64,0-13.84-6.03-13.84-13.48v-61.11c0-7.45,6.2-13.48,13.84-13.48h24.55c7.64,0,13.84,6.03,13.84,13.48Z" opacity=".25"/><path fill="#ccd2d6" d="m363.22,754.67h-24.55c-9.28,0-16.84-7.39-16.84-16.48v-61.11c0-9.08,7.55-16.48,16.84-16.48h24.55c9.29,0,16.84,7.39,16.84,16.48v61.11c0,2.41-.55,4.82-1.58,6.96-2.74,5.78-8.74,9.52-15.26,9.52Zm-24.55-88.06c-5.98,0-10.84,4.7-10.84,10.48v61.11c0,5.78,4.86,10.48,10.84,10.48h24.55c4.22,0,8.09-2.4,9.85-6.1.65-1.35.99-2.86.99-4.37v-61.11c0-5.78-4.86-10.48-10.84-10.48h-24.55Z"/><path fill="#ccd2d6" d="m374.44,687.12h-46.98c-1.66,0-3-1.34-3-3s1.34-3,3-3h46.98c1.66,0,3,1.34,3,3s-1.34,3-3,3Z"/><path fill="#ccd2d6" d="m374.44,708.55h-46.98c-1.66,0-3-1.34-3-3s1.34-3,3-3h46.98c1.66,0,3,1.34,3,3s-1.34,3-3,3Z"/><path fill="#ccd2d6" d="m374.44,729.98h-46.98c-1.66,0-3-1.34-3-3s1.34-3,3-3h46.98c1.66,0,3,1.34,3,3s-1.34,3-3,3Z"/></g><g><path fill="#ccd2d6" d="m516.59,103.74c-1.66,0-3-1.34-3-3v-30.04c0-1.66,1.34-3,3-3s3,1.34,3,3v30.04c0,1.66-1.34,3-3,3Z"/><path fill="#ccd2d6" d="m460.31,133.03c-.67,0-1.34-.22-1.9-.68l-30.22-24.78c-1.28-1.05-1.47-2.94-.42-4.22,1.05-1.28,2.94-1.47,4.22-.42l30.22,24.78c1.28,1.05,1.47,2.94.42,4.22-.59.72-1.45,1.1-2.32,1.1Z"/><path fill="#ccd2d6" d="m396.91,192.05c-1.46,0-2.73-1.06-2.96-2.54-.25-1.64.87-3.17,2.51-3.42l37.05-5.7c1.63-.25,3.17.87,3.42,2.51.25,1.64-.87,3.17-2.51,3.42l-37.05,5.7c-.15.02-.31.04-.46.04Z"/><g><path fill="#ccd2d6" d="m603.46,133.03c-.87,0-1.73-.37-2.32-1.1-1.05-1.28-.86-3.17.42-4.22l30.22-24.78c1.28-1.05,3.17-.86,4.22.42,1.05,1.28.86,3.17-.42,4.22l-30.22,24.78c-.56.46-1.23.68-1.9.68Z"/><path fill="#ccd2d6" d="m666.87,192.05c-.15,0-.31-.01-.46-.04l-37.05-5.7c-1.64-.25-2.76-1.78-2.51-3.42.25-1.64,1.79-2.76,3.42-2.51l37.05,5.7c1.64.25,2.76,1.78,2.51,3.42-.23,1.48-1.51,2.54-2.96,2.54Z"/></g></g><g><path fill="#ccd2d6" d="m207.48,697.8c-14.26,0-27.67,3.66-39.34,10.08-25.26,13.9-42.38,40.77-42.38,71.64s17.12,57.74,42.38,71.64c11.66,6.42,25.07,10.08,39.34,10.08,18.24,0,35.09-5.98,48.68-16.09,5.51-4.08,10.48-8.85,14.8-14.17,6.7-8.26,11.83-17.86,14.91-28.33,1.35-4.57,2.31-9.31,2.83-14.17.32-2.94.49-5.93.49-8.95,0-45.13-36.59-81.72-81.71-81.72Zm71.54,90.67c-.61,4.89-1.7,9.63-3.24,14.17-3.66,10.83-9.83,20.51-17.82,28.33-5.95,5.85-12.92,10.67-20.61,14.17-9.1,4.15-19.22,6.46-29.87,6.46s-20.78-2.31-29.87-6.46c-3.3-1.5-6.46-3.24-9.46-5.21-19.72-12.86-32.75-35.11-32.75-60.41s13.03-47.55,32.75-60.41c11.31-7.39,24.83-11.68,39.34-11.68,39.81,0,72.09,32.27,72.09,72.09,0,3.03-.19,6.02-.55,8.95Z"/><path fill="#ccd2d6" d="m207.48,707.43c-14.51,0-28.03,4.29-39.34,11.68-19.72,12.86-32.75,35.11-32.75,60.41s13.03,47.55,32.75,60.41c3.01,1.97,6.17,3.71,9.46,5.21,9.1,4.15,19.22,6.46,29.87,6.46s20.78-2.31,29.87-6.46c7.69-3.5,14.66-8.33,20.61-14.17,7.99-7.82,14.15-17.5,17.82-28.33,1.53-4.54,2.63-9.28,3.24-14.17.37-2.93.55-5.92.55-8.95,0-39.81-32.27-72.09-72.09-72.09Zm45.62,78.73c-1.05,1.05-2.35,1.85-3.79,2.31-.9.29-1.86.44-2.86.44h-77.96c-.12,0-.24,0-.36,0-5.02-.19-9.04-4.32-9.04-9.39,0-2.59,1.06-4.94,2.75-6.64,1.62-1.63,3.84-2.66,6.28-2.75.12,0,.24,0,.36,0h77.96c5.19,0,9.39,4.2,9.39,9.39,0,2.59-1.05,4.94-2.75,6.64Z" opacity=".25"/><path fill="#ccd2d6" d="m255.85,779.52c0,2.59-1.05,4.94-2.75,6.64-1.05,1.05-2.35,1.85-3.79,2.31h-81.17v.43c-5.02-.19-9.04-4.32-9.04-9.39,0-2.59,1.06-4.94,2.75-6.64,1.62-1.63,3.84-2.66,6.28-2.75.12,0,.24,0,.36,0h77.96c5.19,0,9.39,4.2,9.39,9.39Z" opacity=".75"/><path fill="#ccd2d6" d="m171.15,792.02l-3.11-.12c-6.69-.25-11.92-5.69-11.92-12.39,0-3.31,1.29-6.42,3.63-8.76,2.21-2.22,5.16-3.51,8.3-3.62.11,0,.29,0,.47,0h77.96c6.83,0,12.39,5.56,12.39,12.39,0,3.3-1.29,6.42-3.62,8.76-1.4,1.4-3.12,2.45-5,3.05l-.45.14h-78.64v.55Zm-5-6.55h82.65c.81-.32,1.56-.81,2.18-1.43,1.2-1.21,1.87-2.81,1.87-4.52,0-3.52-2.87-6.39-6.39-6.39h-78.14c-1.68.06-3.19.73-4.33,1.87-1.21,1.21-1.88,2.82-1.88,4.52,0,2.71,1.66,5.02,4.04,5.95Z"/></g><g><path fill="#ccd2d6" d="m270.93,354.01c-2.69,6.55-6.19,12.72-10.39,18.43h10.39v-18.43Z" opacity=".25"/><path fill="#ccd2d6" d="m137.5,233.84h43.58c42.01,0,77.71,24.9,90.76,59.58,4.06-18.92,21.3-33.13,41.95-33.13h117.27v-38.51h31.96v-55.15c0-26.73,21.67-48.4,48.41-48.4h40.91c26.74,0,48.41,21.67,48.41,48.4v55.15h31.96v38.51h103.93c.16-.15.32-.31.48-.45,17.38-16.07,41.41-25.99,67.92-25.99h57.45c26.53,0,50.55-9.92,67.94-25.99,17.38-16.05,28.12-38.24,28.12-62.73,0-49.01-43-88.72-96.07-88.72H137.5c-26.53,0-50.55,9.92-67.92,25.97-17.38,16.07-28.14,38.24-28.14,62.74,0,48.99,43.02,88.72,96.07,88.72Z" opacity=".25"/><path fill="#ccd2d6" d="m862.5,766.15h-166.2c-8.54,12.08-22.84,20.01-39.06,20.01h-1.01v54.72h47.42c7.29,0,13.2,5.34,13.2,11.92v16.95c0,6.58-5.91,11.92-13.2,11.92h-124.46c-7.29,0-13.19-5.34-13.19-11.92v-16.95c0-6.58,5.9-11.92,13.19-11.92h-2.24v-54.72h-90.55v54.72h-2.25c7.29,0,13.2,5.34,13.2,11.92v16.95c0,6.58-5.91,11.92-13.2,11.92h-124.46c-7.29,0-13.2-5.34-13.2-11.92v-16.95c0-6.58,5.91-11.92,13.2-11.92h47.42v-54.72h-3.79c-22.05,0-40.57-14.64-45.87-34.49h-18.78c-7.64,0-13.84-6.03-13.84-13.47v-22.37c-11.94-4.93-38.35-19.64-34.92-52.6,3.65-35.18,38.05-49.81,49.67-53.77h16.36s-42.15-.01-42.15-.01c-23.67,0-42.86-18.66-42.86-41.7v-75.63h-48.91v-89.29c-12.42,5.41-26.29,8.44-40.94,8.44h-43.58c-26.53,0-50.55,9.92-67.92,25.99-17.38,16.07-28.14,38.24-28.14,62.74,0,48.99,43.02,88.72,96.07,88.72h43.58c53.07,0,96.07,39.71,96.07,88.72,0,15.91-4.54,30.84-12.47,43.75,15.12,14.83,24.51,35.48,24.51,58.34,0,3.03-.16,6.02-.48,8.96-.53,4.86-1.49,9.6-2.84,14.16-3.08,10.48-8.2,20.07-14.91,28.33-4.31,5.33-9.28,10.1-14.79,14.18-13.6,10.11-30.44,16.09-48.69,16.09-14.26,0-27.67-3.65-39.33-10.08-25.26-13.9-42.38-40.77-42.38-71.64,0-4.36.35-8.64,1.01-12.82-22.25,2.28-42.2,11.58-57.21,25.44-17.38,16.05-28.14,38.22-28.14,62.73,0,49.01,43.02,88.73,96.07,88.73h725c26.53,0,50.55-9.92,67.94-25.99,17.38-16.07,28.12-38.24,28.12-62.74,0-48.99-43-88.72-96.07-88.72Z" opacity=".25"/><path fill="#ccd2d6" d="m862.5,411.27h-23.95v80.85h-8.28c1.68,1.89,2.7,4.34,2.7,7.03v48.09c0-5.94,4.95-10.75,11.06-10.75h19.15c6.11,0,11.05,4.81,11.05,10.75v40.82c21.84-2.46,41.42-11.68,56.22-25.33,17.38-16.05,28.12-38.22,28.12-62.73,0-49.01-43-88.73-96.07-88.73Z" opacity=".25"/></g></svg>