<?xml version="1.0" encoding="utf-8"?>
<!-- Generator: Adobe Illustrator 28.1.0, SVG Export Plug-In . SVG Version: 6.00 Build 0)  -->
<svg version="1.1" id="Layer_1" xmlns="http://www.w3.org/2000/svg" xmlns:xlink="http://www.w3.org/1999/xlink" x="0px" y="0px"
	 viewBox="0 0 1000 1000" style="enable-background:new 0 0 1000 1000;" xml:space="preserve">
<style type="text/css">
	.st0{opacity:0.5;fill:#CCD2D6;enable-background:new    ;}
	.st1{opacity:0.75;fill:#CCD2D6;enable-background:new    ;}
	.st2{opacity:0;fill:#CCD2D6;enable-background:new    ;}
	.st3{opacity:0.75;}
	.st4{fill:#CCD2D6;}
	.st5{opacity:0.75;enable-background:new    ;}
	.st6{opacity:0.25;fill:#CCD2D6;enable-background:new    ;}
	.st7{opacity:0.25;fill:#CCD2D6;stroke:#000000;stroke-width:7;stroke-miterlimit:10;enable-background:new    ;}
</style>
<path class="st0" d="M355.9,609.5v54.2h-17.3c-7.6,0-13.8,6-13.8,13.5v38.7c-11.9-4.9-38.4-19.6-34.9-52.6
	c3.6-35.2,38-49.8,49.7-53.8H355.9z"/>
<path d="M327.8,720.3l-4.1-1.7c-12.3-5.1-40.4-20.6-36.8-55.7c3.9-37.2,40.5-52.5,51.7-56.3l0.5-0.2h19.9v60.2h-20.3
	c-6,0-10.8,4.7-10.8,10.5L327.8,720.3L327.8,720.3z M340.1,612.5c-10.8,3.8-43.8,17.9-47.2,51.1c-2.9,27.6,16.8,41.7,28.9,47.6
	v-34.1c0-9.1,7.5-16.5,16.8-16.5h14.3v-48.2H340.1z"/>
<path class="st0" d="M746.8,260.3h-433c-23.7,0-42.9,18.7-42.9,41.7v190.1h2.8c7.5,0,13.9,5.5,14.8,12.8
	c3.1,25.9,18.9,81.9,96.6,81.9h103c13,0,23.2-10.3,23.4-23c0.1-4.1,1.8-7.8,4.6-10.5c2.8-2.8,6.7-4.5,11-4.5h9.2
	c8.5,0,15.7,6.7,15.6,15c-0.1,6.4,2.6,12.2,6.9,16.3c4.2,4.1,10.1,6.7,16.5,6.7h92.6v-14.5c0-5.9,5-10.8,11-10.8h19.2
	c6.1,0,11,4.8,11,10.8v-73.1c0-6,5-10.8,11-10.8h19.2c6.1,0,11,4.8,11,10.8v-20.2c0-6,5-10.8,11.1-10.8h19.2c3.7,0,7,1.8,9,4.5V302
	C789.6,279,770.4,260.3,746.8,260.3L746.8,260.3z M720.5,379.7c-9,41.6-47,72.8-92.4,72.8s-83.4-31.2-92.4-72.8
	c-0.5-2.5-0.5-5,0.2-7.3h-20.4c0.6,2.3,0.7,4.8,0.2,7.3c-9,41.6-47,72.8-92.4,72.8s-83.4-31.2-92.4-72.8
	c-2.1-9.8,5.4-19.1,15.7-19.1h358.2C715.1,360.7,722.6,369.9,720.5,379.7L720.5,379.7z"/>
<path d="M670.9,589.8h-95.6c-7,0-13.7-2.7-18.6-7.5c-5.1-4.9-7.8-11.5-7.8-18.5c0-3-1.2-5.9-3.4-8.2c-2.4-2.4-5.8-3.8-9.2-3.8H527
	c-3.4,0-6.6,1.3-9,3.6c-2.3,2.2-3.6,5.2-3.7,8.4c-0.2,14.3-12,25.9-26.4,25.9H385c-80.6,0-96.5-59.1-99.5-84.5
	c-0.7-5.8-5.8-10.1-11.8-10.1h-5.8V302c0-24.6,20.6-44.7,45.9-44.7h433c25.3,0,45.9,20.1,45.9,44.7v179.8l-5.4-7.4
	c-1.5-2-4-3.3-6.6-3.3h-19.2c-4.5,0-8.1,3.5-8.1,7.8v20.2h-6c0-4.3-3.6-7.8-8-7.8h-19.2c-4.4,0-8,3.5-8,7.8v73.1h-6
	c0-4.3-3.6-7.8-8-7.8H679c-4.4,0-8,3.5-8,7.8L670.9,589.8L670.9,589.8z M527.1,545.8h9.2c5.1,0,10,2,13.5,5.6
	c3.3,3.4,5.2,7.8,5.1,12.4c0,5.3,2.1,10.3,6,14.1c3.9,3.8,9,5.8,14.5,5.8h89.6v-11.5c0-7.6,6.3-13.8,14-13.8h19.2c3,0,5.8,0.9,8,2.5
	v-61.9c0-7.6,6.3-13.8,14-13.8h19.2c3,0,5.8,0.9,8,2.5v-9c0-7.6,6.3-13.8,14.1-13.8h19.2c2.1,0,4.1,0.5,6,1.3V302
	c0-21.4-17.9-38.7-39.9-38.7h-433c-22,0-39.9,17.4-39.9,38.7v187.1c9,0.1,16.5,6.7,17.5,15.4c2.9,23.8,17.8,79.3,93.6,79.3h103
	c11.3,0,20.3-8.8,20.4-20c0.1-4.8,2-9.3,5.5-12.7C517.4,547.7,522.1,545.8,527.1,545.8L527.1,545.8z"/>
<path d="M628.1,455.5c-22.5,0-44.4-7.6-61.7-21.5c-17.1-13.7-29-32.8-33.6-53.7c-0.4-1.6-0.5-3.3-0.4-4.9H519c0.1,1.6,0,3.3-0.4,4.9
	c-9.5,43.6-49.5,75.2-95.3,75.2c-22.5,0-44.4-7.6-61.7-21.5c-17.1-13.7-29.1-32.8-33.6-53.7c-1.2-5.5,0.1-11.2,3.7-15.6
	c3.6-4.5,9.1-7.1,15-7.1h358.2c5.9,0,11.3,2.6,15,7.1c3.5,4.4,4.9,10.1,3.7,15.6l0,0C714,423.9,673.9,455.5,628.1,455.5z
	 M511.5,369.4h28.3l-1,3.8c-0.5,1.9-0.6,3.9-0.1,5.9c8.9,40.8,46.5,70.5,89.5,70.5s80.6-29.6,89.5-70.5l0,0
	c0.8-3.7-0.1-7.6-2.5-10.6c-2.5-3.1-6.2-4.9-10.3-4.9H346.6c-4,0-7.8,1.8-10.3,4.9c-2.4,3-3.3,6.8-2.5,10.6
	c8.9,40.8,46.5,70.5,89.5,70.5s80.6-29.6,89.5-70.5c0.4-2,0.4-4-0.1-5.9L511.5,369.4L511.5,369.4z"/>
<rect x="222" y="372.4" width="48.9" height="119.7"/>
<rect x="789.6" y="372.4" width="48.9" height="119.7"/>
<rect x="431.1" y="221.8" class="st0" width="201.6" height="38.5"/>
<path d="M635.7,263.3H428.1v-44.5h207.6V263.3z M434.1,257.3h195.6v-32.5H434.1V257.3z"/>
<path class="st1" d="M511.4,118.2h40.9c26.7,0,48.4,21.7,48.4,48.4v55.1H463v-55.1C463,139.9,484.7,118.2,511.4,118.2L511.4,118.2z"
	/>
<path d="M603.8,224.8H460v-58.1c0-28.3,23.1-51.4,51.4-51.4h40.9c28.3,0,51.4,23.1,51.4,51.4L603.8,224.8L603.8,224.8z M466,218.8
	h131.7v-52.1c0-25-20.4-45.4-45.4-45.4h-40.9c-25,0-45.4,20.4-45.4,45.4L466,218.8L466,218.8z"/>
<path d="M583,181.2c-1.4,0-2.6-1-2.9-2.4c-7.2-33.8-31-40.4-31.2-40.5c-1.6-0.4-2.6-2.1-2.2-3.7c0.4-1.6,2-2.6,3.7-2.1
	c1.1,0.3,27.7,7.6,35.6,45c0.3,1.6-0.7,3.2-2.3,3.6C583.5,181.2,583.3,181.2,583,181.2L583,181.2z"/>
<path d="M584.8,206.4c-1.7,0-3-1.3-3-3v-14.5c0-1.7,1.3-3,3-3s3,1.3,3,3v14.5C587.8,205.1,586.4,206.4,584.8,206.4z"/>
<path d="M720.5,379.7c-9,41.6-47,72.8-92.4,72.8s-83.4-31.2-92.4-72.8c-0.5-2.5-0.5-5,0.2-7.3h-20.4c0.6,2.3,0.7,4.8,0.2,7.3
	c-9,41.6-47,72.8-92.4,72.8s-83.4-31.2-92.4-72.8c-2.1-9.8,5.4-19.1,15.7-19.1h358.2C715.1,360.7,722.7,369.9,720.5,379.7
	L720.5,379.7z"/>
<path d="M517.2,517c-1,0-2.1-0.5-2.6-1.5c-0.8-1.4-0.3-3.3,1.2-4.1c1.7-1,41.9-23.1,79.1-10.1c1.6,0.5,2.4,2.3,1.8,3.8
	c-0.5,1.6-2.3,2.4-3.8,1.8c-34.6-12.1-73.8,9.5-74.2,9.7C518.2,516.9,517.7,517,517.2,517L517.2,517z"/>
<path d="M440.5,351.8c-26.5,0-59.6-10.3-61.5-10.9c-1.6-0.5-2.5-2.2-2-3.8c0.5-1.6,2.2-2.5,3.8-2c0.6,0.2,59.9,18.5,80.7,6.6
	c1.4-0.8,3.3-0.3,4.1,1.1c0.8,1.4,0.3,3.3-1.1,4.1C458.5,350.4,449.9,351.7,440.5,351.8L440.5,351.8z"/>
<path d="M607.2,351.8c-9.4,0-17.9-1.3-24-4.7c-1.4-0.8-1.9-2.7-1.1-4.1c0.8-1.4,2.7-1.9,4.1-1.1c20.8,11.9,80.1-6.4,80.7-6.6
	c1.6-0.5,3.3,0.4,3.8,2s-0.4,3.3-2,3.8C666.9,341.5,633.8,351.8,607.2,351.8L607.2,351.8z"/>
<path class="st0" d="M667.9,651.8v-42.4H566.2l-4.7,31.1c-0.5,3.4-2.3,6.4-4.7,8.6l19,80.5c0.7,3-0.3,6-2.6,8.1l-37,33.5
	c-3.4,3-8.5,3-11.9,0l-37-33.5c-2.3-2.1-3.3-5.2-2.6-8.1l7-29.4h-1.2c-2.9,0-5.3-2.3-5.3-5.1c0-1.4,0.6-2.7,1.5-3.6
	c0.9-0.9,2.3-1.5,3.7-1.5h3.6l9.7-41c-2.3-2.2-4-5-4.5-8.3l-5-31.2H355.9v54.2h7.3c7.6,0,13.8,6,13.8,13.5v61.1c0,2-0.5,3.9-1.3,5.7
	c-2.2,4.6-7,7.8-12.6,7.8h-5.8c5.3,19.8,23.8,34.5,45.9,34.5h253.9c26.2,0,47.4-20.7,47.4-46.1v-49.8
	C684.1,688.8,667.9,672.2,667.9,651.8L667.9,651.8z M451.1,693.2c-8.4,13-20,18.7-25.9,20.8c-2.4,0.8-5,0.8-7.4,0
	c-5.9-2.2-17.5-7.8-25.9-20.8c-7.9-12.3-9.9-29.7-10.4-39.5c-0.2-4.5,2.5-8.5,6.7-10.2l29.2-11.5c2.6-1,5.5-1,8.1,0l29.2,11.5
	c4.2,1.7,6.9,5.8,6.7,10.2C461,663.5,459,680.8,451.1,693.2L451.1,693.2z"/>
<path d="M657.2,789.2H403.3c-22.9,0-43-15.1-48.8-36.7l-1-3.8h9.7c4.2,0,8.1-2.4,9.9-6.1c0.6-1.3,1-2.9,1-4.4v-61.1
	c0-5.8-4.9-10.5-10.8-10.5h-10.3v-60.2h143.9l5.4,33.8c0.4,2.5,1.6,4.8,3.6,6.6l1.3,1.2l-10.6,45h-6c-0.6,0-1.2,0.2-1.6,0.6
	c-0.3,0.3-0.6,0.8-0.6,1.5c0,1.2,1,2.1,2.3,2.1h5l-7.8,33.1c-0.4,1.9,0.2,3.9,1.7,5.2l37,33.5c2.2,2,5.7,2,7.9,0l37-33.5
	c1.5-1.3,2.1-3.3,1.7-5.2l-19.4-82.2l1.4-1.2c2-1.8,3.3-4.2,3.8-6.8l5.1-33.7h107.2v45.4c0,18.5,14.9,34.1,34,35.5l2.8,0.2V740
	C707.6,767.1,685,789.2,657.2,789.2L657.2,789.2z M361.5,754.7c6.3,17,22.9,28.5,41.8,28.5h253.9c24.5,0,44.4-19.3,44.4-43.1v-47
	c-20.8-2.8-36.7-20.4-36.7-41.2v-39.4h-96.1l-4.3,28.6c-0.5,3.4-2.1,6.6-4.4,9.1l18.6,78.8c0.9,4-0.4,8.2-3.5,11l-37,33.5
	c-4.5,4.1-11.4,4.1-15.9,0L485.3,740c-3.1-2.8-4.4-7-3.5-11l6.2-26.1c-3.3-1-5.7-4.1-5.7-7.7c0-2.2,0.9-4.2,2.5-5.8
	c1.5-1.5,3.6-2.3,5.8-2.3h1.2l8.8-37.1c-2.2-2.5-3.6-5.5-4.2-8.8l-4.6-28.7H358.9v48.2h4.3c9.3,0,16.8,7.4,16.8,16.5v61.1
	c0,2.4-0.5,4.8-1.6,7c-2.7,5.8-8.7,9.5-15.3,9.5L361.5,754.7L361.5,754.7z"/>
<path d="M421.5,717.6c-1.6,0-3.2-0.3-4.7-0.8c-6.5-2.4-18.6-8.4-27.4-22c-8.3-13-10.4-31.3-10.9-41c-0.3-5.7,3.2-11,8.6-13.2
	l29.2-11.5c3.3-1.3,7-1.3,10.3,0l29.2,11.5c5.4,2.1,8.9,7.4,8.6,13.2c-0.5,9.7-2.5,27.9-10.9,41l0,0c-8.8,13.6-20.9,19.6-27.4,22
	C424.7,717.4,423.1,717.6,421.5,717.6L421.5,717.6z M421.5,634.2c-1,0-2,0.2-3,0.6l-29.2,11.5c-3,1.2-5,4.1-4.8,7.3
	c0.5,9.1,2.3,26.2,9.9,38c7.8,12.1,18.6,17.5,24.4,19.6c1.7,0.6,3.6,0.6,5.3,0c5.7-2.1,16.5-7.4,24.3-19.6c7.6-11.9,9.5-28.9,9.9-38
	c0.2-3.2-1.8-6.1-4.8-7.3l-29.2-11.5C423.5,634.4,422.6,634.2,421.5,634.2L421.5,634.2z M451.1,693.2L451.1,693.2L451.1,693.2z"/>
<path d="M573.3,737.8l-37,33.5c-3.4,3-8.5,3-11.9,0l-37-33.5c-2.3-2.1-3.3-5.2-2.6-8.1l6.9-29.4h20.5c1.5,0,2.8-0.6,3.7-1.5
	c1-0.9,1.5-2.2,1.5-3.6c0-2.8-2.4-5.1-5.3-5.1h-18l9.7-41c2.7,2.4,6.3,3.9,10.2,3.9h32.9c3.8,0,7.3-1.4,9.9-3.7l19,80.5
	C576.5,732.6,575.5,735.7,573.3,737.8L573.3,737.8z"/>
<path d="M566.2,609.5l-4.7,31.1c-0.5,3.4-2.2,6.4-4.7,8.6c-2.7,2.3-6.2,3.7-9.9,3.7H514c-3.9,0-7.5-1.5-10.2-3.9
	c-2.4-2.2-4-5-4.5-8.3l-5-31.2H566.2z"/>
<path class="st0" d="M517.4,695.2c0,1.4-0.6,2.7-1.5,3.6c-0.9,0.9-2.3,1.5-3.7,1.5h-21.6c-2.9,0-5.3-2.3-5.3-5.1
	c0-1.4,0.6-2.7,1.5-3.6c0.9-0.9,2.3-1.5,3.7-1.5h21.6C515,690,517.4,692.3,517.4,695.2z"/>
<path d="M512.1,703.3h-21.6c-4.6,0-8.3-3.7-8.3-8.1c0-2.2,0.9-4.2,2.5-5.8c1.5-1.5,3.6-2.3,5.8-2.3h21.6c4.6,0,8.3,3.6,8.3,8.1
	c0,2.2-0.9,4.3-2.5,5.8C516.4,702.4,514.4,703.3,512.1,703.3L512.1,703.3z M490.5,693c-0.6,0-1.2,0.2-1.6,0.6
	c-0.3,0.3-0.6,0.8-0.6,1.5c0,1.2,1,2.1,2.3,2.1h21.6c0.6,0,1.2-0.2,1.6-0.6c0.5-0.4,0.7-1,0.7-1.5c0-1.2-1-2.1-2.3-2.1H490.5z"/>
<path class="st2" d="M461.5,653.7c-0.5,9.8-2.5,27.2-10.4,39.5c-8.4,13-20,18.7-25.9,20.8c-2.4,0.9-5,0.9-7.4,0
	c-5.9-2.2-17.5-7.8-25.9-20.8c-7.9-12.3-9.9-29.7-10.4-39.5c-0.2-4.4,2.5-8.5,6.7-10.2l29.2-11.5c2.6-1,5.5-1,8.1,0l29.2,11.5
	C459,645.1,461.7,649.2,461.5,653.7L461.5,653.7z"/>
<g class="st3">
	<path class="st4" d="M667.9,586.8v22.7H313.8c-23.7,0-42.9-18.7-42.9-41.7v-75.6h2.8c7.5,0,13.9,5.5,14.8,12.8
		c3.1,25.9,18.9,81.9,96.6,81.9h103c13,0,23.2-10.3,23.4-23c0.1-4.1,1.8-7.8,4.6-10.5c2.8-2.8,6.7-4.5,11-4.5h9.2
		c8.5,0,15.7,6.7,15.6,15c-0.1,6.4,2.6,12.2,6.9,16.3c4.2,4.1,10.1,6.7,16.5,6.7L667.9,586.8L667.9,586.8z"/>
</g>
<path d="M670.9,612.5H313.8c-25.3,0-45.9-20-45.9-44.7v-78.6h5.8c9,0,16.7,6.6,17.7,15.4c2.9,23.8,17.8,79.3,93.6,79.3h103
	c11.3,0,20.3-8.8,20.4-20c0.1-4.8,2-9.3,5.5-12.7c3.5-3.4,8.2-5.3,13.1-5.3h9.2c5.1,0,10,2,13.5,5.6c3.3,3.4,5.2,7.8,5.1,12.4
	c0,5.3,2.1,10.3,6,14.1c3.9,3.8,9,5.8,14.5,5.8h95.6L670.9,612.5L670.9,612.5z M273.9,495.1v72.6c0,21.3,17.9,38.7,39.9,38.7h351.1
	v-16.7h-89.6c-7,0-13.7-2.7-18.6-7.5c-5.1-4.9-7.8-11.5-7.8-18.5c0-3-1.2-5.9-3.4-8.2c-2.4-2.4-5.8-3.8-9.2-3.8H527
	c-3.4,0-6.6,1.3-9,3.6c-2.3,2.2-3.6,5.2-3.7,8.4c-0.2,14.3-12,25.9-26.4,25.9H385c-80.6,0-96.5-59.1-99.5-84.5
	C284.8,499.5,279.9,495.2,273.9,495.1L273.9,495.1z"/>
<g>
	<rect x="407.1" y="786.2" class="st5" width="79.3" height="54.7"/>
	<rect x="576.9" y="786.2" class="st5" width="79.3" height="54.7"/>
	<path d="M489.4,843.9h-85.3v-60.7h85.3V843.9z M410.1,837.9h73.3v-48.7h-73.3V837.9z"/>
	<path d="M659.2,843.9h-85.3v-60.7h85.3V843.9z M579.9,837.9h73.3v-48.7h-73.3V837.9z"/>
	<path d="M484.1,840.9H359.7c-7.3,0-13.2,5.3-13.2,11.9v16.9c0,6.6,5.9,11.9,13.2,11.9h124.5c7.3,0,13.2-5.3,13.2-11.9v-16.9
		C497.4,846.2,491.4,840.9,484.1,840.9z"/>
	<path d="M703.7,840.9H579.2c-7.3,0-13.2,5.3-13.2,11.9v16.9c0,6.6,5.9,11.9,13.2,11.9h124.5c7.3,0,13.2-5.3,13.2-11.9v-16.9
		C716.9,846.2,710.9,840.9,703.7,840.9z"/>
</g>
<g>
	<path class="st0" d="M874.2,547.2v104.6c0,21.3-17.7,38.6-39.6,38.6H707.5c-1,0-2,0-2.9-0.1c-20.5-1.5-36.7-18.1-36.7-38.5v-79.5
		c0-5.9,5-10.8,11-10.8h19.2c6.1,0,11,4.8,11,10.8v-73.1c0-6,5-10.8,11-10.8h19.2c6.1,0,11,4.8,11,10.8v-20.2c0-6,5-10.8,11.1-10.8
		h19.2c3.7,0,7,1.8,9,4.5c1.3,1.8,2.1,3.9,2.1,6.3v20.2c0-6,5-10.8,11.1-10.8h19.2c6.1,0,11,4.8,11,10.8v48.1
		c0-5.9,5-10.8,11.1-10.8h19.2C869.3,536.5,874.2,541.3,874.2,547.2L874.2,547.2z"/>
	<path d="M834.6,693.4H707.5c-1,0-2,0-3.1-0.1c-22.2-1.6-39.5-19.8-39.5-41.5v-79.5c0-7.6,6.3-13.8,14-13.8h19.2c3,0,5.8,0.9,8,2.5
		v-61.9c0-7.6,6.3-13.8,14-13.8h19.2c3,0,5.8,0.9,8,2.5v-9c0-7.6,6.3-13.8,14.1-13.8h19.2c4.5,0,8.8,2.1,11.4,5.7
		c1.7,2.3,2.7,5.1,2.7,8v9c2.3-1.6,5.1-2.5,8.1-2.5h19.2c7.8,0,14,6.2,14,13.8V536c2.3-1.6,5.1-2.5,8.1-2.5h19.2
		c7.8,0,14,6.2,14,13.8v104.6C877.2,674.7,858.1,693.4,834.6,693.4L834.6,693.4z M678.9,564.5c-4.4,0-8,3.5-8,7.8v79.5
		c0,18.5,14.9,34.1,34,35.5c0.9,0.1,1.8,0.1,2.7,0.1h127.1c20.2,0,36.6-16,36.6-35.6V547.2c0-4.3-3.6-7.8-8-7.8H844
		c-4.5,0-8.1,3.5-8.1,7.8h-6v-48.1c0-4.3-3.6-7.8-8-7.8h-19.2c-4.5,0-8.1,3.5-8.1,7.8h-6v-20.2c0-1.6-0.5-3.2-1.5-4.5
		c-1.5-2.1-4-3.3-6.6-3.3h-19.2c-4.5,0-8.1,3.5-8.1,7.8v20.2h-6c0-4.3-3.6-7.8-8-7.8h-19.2c-4.4,0-8,3.5-8,7.8v73.1h-6
		c0-4.3-3.6-7.8-8-7.8L678.9,564.5L678.9,564.5z"/>
	<path d="M844.5,643.4c-1,0-1.9-0.5-2.5-1.3c-12.5-18-35.2-29.6-67.2-34.5c-26.2-4-51.2-2.2-60.8-1.2c-2.1,0.2-4.2-0.5-5.7-1.9
		c-1.5-1.4-2.4-3.3-2.4-5.3v-29.2c0-1.7,1.3-3,3-3s3,1.3,3,3v29.2c0,0.4,0.2,0.7,0.4,0.9c0.2,0.2,0.5,0.4,1.1,0.3
		c23.4-2.4,102.3-6.6,133.5,38.2c1,1.4,0.6,3.2-0.8,4.2C845.7,643.2,845.1,643.4,844.5,643.4L844.5,643.4z"/>
	<path d="M835.2,575.3H709.2c-1.7,0-3-1.3-3-3s1.3-3,3-3h126.1c1.7,0,3,1.3,3,3S836.9,575.3,835.2,575.3z"/>
	<path d="M750.2,575.3c-1.7,0-3-1.3-3-3V497c0-1.7,1.3-3,3-3s3,1.3,3,3v75.2C753.2,573.9,751.9,575.3,750.2,575.3z"/>
	<path d="M792.4,575.3c-1.7,0-3-1.3-3-3V497c0-1.7,1.3-3,3-3s3,1.3,3,3v75.2C795.4,573.9,794.1,575.3,792.4,575.3z"/>
	<path d="M833.1,575.3c-1.7,0-3-1.3-3-3v-40.5c0-1.7,1.3-3,3-3s3,1.3,3,3v40.5C836.1,573.9,834.8,575.3,833.1,575.3z"/>
</g>
<g>
	<path class="st6" d="M377.1,677.1v61.1c0,2-0.5,3.9-1.3,5.7c-2.2,4.6-7,7.8-12.6,7.8h-24.5c-7.6,0-13.8-6-13.8-13.5v-61.1
		c0-7.5,6.2-13.5,13.8-13.5h24.5C370.9,663.6,377.1,669.6,377.1,677.1z"/>
	<path d="M363.2,754.7h-24.5c-9.3,0-16.8-7.4-16.8-16.5v-61.1c0-9.1,7.5-16.5,16.8-16.5h24.5c9.3,0,16.8,7.4,16.8,16.5v61.1
		c0,2.4-0.5,4.8-1.6,7C375.7,750.9,369.7,754.7,363.2,754.7L363.2,754.7z M338.7,666.6c-6,0-10.8,4.7-10.8,10.5v61.1
		c0,5.8,4.9,10.5,10.8,10.5h24.5c4.2,0,8.1-2.4,9.9-6.1c0.6-1.3,1-2.9,1-4.4v-61.1c0-5.8-4.9-10.5-10.8-10.5L338.7,666.6
		L338.7,666.6z"/>
	<path d="M374.4,687.1h-47c-1.7,0-3-1.3-3-3s1.3-3,3-3h47c1.7,0,3,1.3,3,3S376.1,687.1,374.4,687.1z"/>
	<path d="M374.4,708.5h-47c-1.7,0-3-1.3-3-3s1.3-3,3-3h47c1.7,0,3,1.3,3,3S376.1,708.5,374.4,708.5z"/>
	<path d="M374.4,730h-47c-1.7,0-3-1.3-3-3s1.3-3,3-3h47c1.7,0,3,1.3,3,3S376.1,730,374.4,730z"/>
</g>
<g>
	<path d="M516.6,103.7c-1.7,0-3-1.3-3-3v-30c0-1.7,1.3-3,3-3s3,1.3,3,3v30C519.6,102.4,518.2,103.7,516.6,103.7z"/>
	<path d="M460.3,133c-0.7,0-1.3-0.2-1.9-0.7l-30.2-24.8c-1.3-1.1-1.5-2.9-0.4-4.2s2.9-1.5,4.2-0.4l30.2,24.8
		c1.3,1.1,1.5,2.9,0.4,4.2C462,132.7,461.2,133,460.3,133L460.3,133z"/>
	<path d="M396.9,192.1c-1.5,0-2.7-1.1-3-2.5c-0.2-1.6,0.9-3.2,2.5-3.4l37-5.7c1.6-0.2,3.2,0.9,3.4,2.5s-0.9,3.2-2.5,3.4l-37,5.7
		C397.2,192,397.1,192.1,396.9,192.1L396.9,192.1z"/>
	<g>
		<path d="M603.5,133c-0.9,0-1.7-0.4-2.3-1.1c-1-1.3-0.9-3.2,0.4-4.2l30.2-24.8c1.3-1.1,3.2-0.9,4.2,0.4s0.9,3.2-0.4,4.2l-30.2,24.8
			C604.8,132.8,604.1,133,603.5,133L603.5,133z"/>
		<path d="M666.9,192.1c-0.2,0-0.3,0-0.5,0l-37-5.7c-1.6-0.2-2.8-1.8-2.5-3.4s1.8-2.8,3.4-2.5l37,5.7c1.6,0.2,2.8,1.8,2.5,3.4
			C669.6,191,668.3,192,666.9,192.1L666.9,192.1z"/>
	</g>
</g>
<g>
	<path d="M207.5,697.8c-14.3,0-27.7,3.7-39.3,10.1c-25.3,13.9-42.4,40.8-42.4,71.6s17.1,57.7,42.4,71.6
		c11.7,6.4,25.1,10.1,39.3,10.1c18.2,0,35.1-6,48.7-16.1c5.5-4.1,10.5-8.8,14.8-14.2c6.7-8.3,11.8-17.9,14.9-28.3
		c1.4-4.6,2.3-9.3,2.8-14.2c0.3-2.9,0.5-5.9,0.5-9C289.2,734.4,252.6,697.8,207.5,697.8L207.5,697.8z M279,788.5
		c-0.6,4.9-1.7,9.6-3.2,14.2c-3.7,10.8-9.8,20.5-17.8,28.3c-5.9,5.8-12.9,10.7-20.6,14.2c-9.1,4.2-19.2,6.5-29.9,6.5
		s-20.8-2.3-29.9-6.5c-3.3-1.5-6.5-3.2-9.5-5.2c-19.7-12.9-32.8-35.1-32.8-60.4s13-47.5,32.8-60.4c11.3-7.4,24.8-11.7,39.3-11.7
		c39.8,0,72.1,32.3,72.1,72.1C279.6,782.6,279.4,785.5,279,788.5L279,788.5z"/>
	<path class="st6" d="M207.5,707.4c-14.5,0-28,4.3-39.3,11.7c-19.7,12.9-32.8,35.1-32.8,60.4s13,47.5,32.8,60.4c3,2,6.2,3.7,9.5,5.2
		c9.1,4.2,19.2,6.5,29.9,6.5s20.8-2.3,29.9-6.5c7.7-3.5,14.7-8.3,20.6-14.2c8-7.8,14.1-17.5,17.8-28.3c1.5-4.5,2.6-9.3,3.2-14.2
		c0.4-2.9,0.5-5.9,0.5-9C279.6,739.7,247.3,707.4,207.5,707.4L207.5,707.4z M253.1,786.2c-1.1,1-2.4,1.8-3.8,2.3
		c-0.9,0.3-1.9,0.4-2.9,0.4h-78c-0.1,0-0.2,0-0.4,0c-5-0.2-9-4.3-9-9.4c0-2.6,1.1-4.9,2.8-6.6c1.6-1.6,3.8-2.7,6.3-2.8
		c0.1,0,0.2,0,0.4,0h78c5.2,0,9.4,4.2,9.4,9.4C255.8,782.1,254.8,784.5,253.1,786.2L253.1,786.2z"/>
	<path class="st1" d="M255.9,779.5c0,2.6-1.1,4.9-2.8,6.6c-1.1,1-2.4,1.8-3.8,2.3h-81.2v0.4c-5-0.2-9-4.3-9-9.4
		c0-2.6,1.1-4.9,2.8-6.6c1.6-1.6,3.8-2.7,6.3-2.8c0.1,0,0.2,0,0.4,0h78C251.6,770.1,255.8,774.3,255.9,779.5L255.9,779.5z"/>
	<path d="M171.1,792l-3.1-0.1c-6.7-0.2-11.9-5.7-11.9-12.4c0-3.3,1.3-6.4,3.6-8.8c2.2-2.2,5.2-3.5,8.3-3.6c0.1,0,0.3,0,0.5,0h78
		c6.8,0,12.4,5.6,12.4,12.4c0,3.3-1.3,6.4-3.6,8.8c-1.4,1.4-3.1,2.5-5,3l-0.4,0.1h-78.6L171.1,792L171.1,792z M166.1,785.5h82.6
		c0.8-0.3,1.6-0.8,2.2-1.4c1.2-1.2,1.9-2.8,1.9-4.5c0-3.5-2.9-6.4-6.4-6.4h-78.1c-1.7,0.1-3.2,0.7-4.3,1.9c-1.2,1.2-1.9,2.8-1.9,4.5
		C162.1,782.2,163.8,784.5,166.1,785.5L166.1,785.5z"/>
</g>
<g>
	<path class="st7" d="M270.9,354c-2.7,6.5-6.2,12.7-10.4,18.4h10.4V354z"/>
	<path class="st7" d="M137.5,233.8h43.6c42,0,77.7,24.9,90.8,59.6c4.1-18.9,21.3-33.1,42-33.1h117.3v-38.5h32v-55.2
		c0-26.7,21.7-48.4,48.4-48.4h40.9c26.7,0,48.4,21.7,48.4,48.4v55.1h32v38.5h103.9c0.2-0.1,0.3-0.3,0.5-0.5
		c17.4-16.1,41.4-26,67.9-26h57.5c26.5,0,50.5-9.9,67.9-26c17.4-16.1,28.1-38.2,28.1-62.7c0-49-43-88.7-96.1-88.7h-725
		c-26.5,0-50.6,9.9-67.9,26c-17.4,16.1-28.1,38.2-28.1,62.7C41.4,194.1,84.5,233.8,137.5,233.8L137.5,233.8z"/>
	<path class="st7" d="M862.5,766.2H696.3c-8.5,12.1-22.8,20-39.1,20h-1v54.7h47.4c7.3,0,13.2,5.3,13.2,11.9v17
		c0,6.6-5.9,11.9-13.2,11.9H579.2c-7.3,0-13.2-5.3-13.2-11.9v-17c0-6.6,5.9-11.9,13.2-11.9h-2.2v-54.7h-90.5v54.7h-2.2
		c7.3,0,13.2,5.3,13.2,11.9v17c0,6.6-5.9,11.9-13.2,11.9H359.7c-7.3,0-13.2-5.3-13.2-11.9v-17c0-6.6,5.9-11.9,13.2-11.9h47.4v-54.7
		h-3.8c-22,0-40.6-14.6-45.9-34.5h-18.8c-7.6,0-13.8-6-13.8-13.5v-22.4c-11.9-4.9-38.4-19.6-34.9-52.6c3.6-35.2,38-49.8,49.7-53.8
		h16.4l-42.1,0c-23.7,0-42.9-18.7-42.9-41.7v-75.6H222v-89.3c-12.4,5.4-26.3,8.4-40.9,8.4h-43.6c-26.5,0-50.6,9.9-67.9,26
		c-17.4,16.1-28.1,38.2-28.1,62.7c0,49,43,88.7,96.1,88.7h43.6c53.1,0,96.1,39.7,96.1,88.7c0,15.9-4.5,30.8-12.5,43.8
		c15.1,14.8,24.5,35.5,24.5,58.3c0,3-0.2,6-0.5,9c-0.5,4.9-1.5,9.6-2.8,14.2c-3.1,10.5-8.2,20.1-14.9,28.3
		c-4.3,5.3-9.3,10.1-14.8,14.2c-13.6,10.1-30.4,16.1-48.7,16.1c-14.3,0-27.7-3.7-39.3-10.1c-25.3-13.9-42.4-40.8-42.4-71.6
		c0-4.4,0.3-8.6,1-12.8c-22.2,2.3-42.2,11.6-57.2,25.4c-17.4,16-28.1,38.2-28.1,62.7c0,49,43,88.7,96.1,88.7h725
		c26.5,0,50.5-9.9,67.9-26c17.4-16.1,28.1-38.2,28.1-62.7C958.6,805.9,915.6,766.2,862.5,766.2L862.5,766.2z"/>
	<path class="st7" d="M862.5,411.3h-24v80.9h-8.3c1.7,1.9,2.7,4.3,2.7,7v48.1c0-5.9,5-10.8,11.1-10.8h19.2c6.1,0,11,4.8,11,10.8
		v40.8c21.8-2.5,41.4-11.7,56.2-25.3c17.4-16,28.1-38.2,28.1-62.7C958.6,451,915.6,411.3,862.5,411.3L862.5,411.3z"/>
</g>
</svg>
