<svg class="lcs" width="117" height="28" viewBox="0 0 117 28" fill="none" xmlns="http://www.w3.org/2000/svg">
<g clip-path="url(#clip0_3087_8289)">
<path d="M38.7823 28H29.7851L23.0009 8.39817H15.7995L9.01535 28H0L9.70465 0H29.0958L38.8005 28H38.7823Z" style="fill-opacity:1;"/>
<path d="M74.6442 14.0092L79.2698 28.0183H70.2726L66.5721 16.8147H51.5707V28.0183H43.2628V0H51.5707V8.39817H67.4972L70.2726 0H79.2698L74.6442 14.0092Z" style="fill-opacity:1;"/>
<path d="M89.2828 14.0099C89.2828 17.1088 91.7679 19.6026 94.8153 19.6026H116.982V28.0008H94.8153C87.1604 28.0008 80.9567 21.7296 80.9567 13.9916C80.9567 6.25354 87.1604 -0.0175781 94.8153 -0.0175781H116.982V8.39893H94.8153C91.7497 8.39893 89.2828 10.911 89.2828 13.9916V14.0099Z" style="fill-opacity:1;"/>
</g>
<defs>
<clipPath id="clip0_3087_8289">
<rect width="117" height="28" fill="white" style="fill-opacity:1;"/>
</clipPath>
</defs>
</svg>
