<?xml version="1.0" encoding="UTF-8"?>
<svg id="Layer_2" data-name="Layer 2" xmlns="http://www.w3.org/2000/svg" xmlns:xlink="http://www.w3.org/1999/xlink" viewBox="0 0 838.15 786.63">
  <defs>
    <style>
      .cls-1 {
        fill: #999;
      }

      .cls-1, .cls-2, .cls-3, .cls-4, .cls-5, .cls-6 {
        stroke-width: 0px;
      }

      .cls-2 {
        fill: url(#linear-gradient);
      }

      .cls-4 {
        fill: #fff;
      }

      .cls-5 {
        fill: url(#linear-gradient-2);
      }

      .cls-6 {
        fill: url(#linear-gradient-3);
      }
    </style>
    <linearGradient id="linear-gradient" x1="350.48" y1="653.75" x2="419.75" y2="202.51" gradientTransform="translate(0 902.31) scale(1 -1)" gradientUnits="userSpaceOnUse">
      <stop offset=".14" stop-color="#b1b8bc" stop-opacity=".5"/>
      <stop offset="1" stop-color="#b1b8bc"/>
    </linearGradient>
    <linearGradient id="linear-gradient-2" x1="710.42" y1="416.9" x2="710.42" y2="228.91" gradientTransform="translate(0 902.31) scale(1 -1)" gradientUnits="userSpaceOnUse">
      <stop offset="0" stop-color="#b1b8bc" stop-opacity=".25"/>
      <stop offset="1" stop-color="#b1b8bc" stop-opacity=".5"/>
    </linearGradient>
    <linearGradient id="linear-gradient-3" x1="163.59" y1="745.59" x2="163.59" y2="629.1" xlink:href="#linear-gradient-2"/>
  </defs>
  <g id="Layer_1-2" data-name="Layer 1">
    <g>
      <path class="cls-1" d="M682.47,218.53l-22.3,27.9-.1.1-6.2-43.7,19.3-48.3c.3,1.2.6,2.4.8,3.6l8.5,60.4Z"/>
      <path class="cls-1" d="M234.57,212.23l-10.5-18.1,385.8-54.7,25.7,2.7c1.7.2,2.9,1.7,2.7,3.4l-1.7,12.6c-3.4-1.4-7.3-1.9-11.2-1.4l-68.6,9.7-2.7-5.6c-.7-1.4-2.8-.7-2.5.8l1.1,5.4-318.1,45.2Z"/>
      <path class="cls-1" d="M561.87,591.73c-3,5.2-3.9,10.7-3.3,15.9l-17.9,2.5-23.6,3.3-170.7,24.3-35.1,5-205.7,29.1c-15.1,2.1-29-8.3-31.2-23.4L18.17,251.13c-2-14.3,7.3-27.5,21.1-30.7.8-.2,1.6-.3,2.3-.4l34.2-4.9-4.3,7.5c-2.4,4.2-2.7,8.8-1.4,12.9l-5.7.8c-1.4.2-2.7.5-3.9.9-.6.2-1.2.4-1.8.7-.6.3-1.2.5-1.7.9-1.7.9-3.2,2.1-4.6,3.4-.2.2-.4.5-.7.7-.9.9-1.7,1.9-2.4,3-1.1,1.7-2,3.5-2.6,5.4-.4,1.4-.7,2.8-.9,4.2,0,.2,0,.4-.1.6v.7c-.1,1.3,0,2.6.2,4l46.2,326.4c.5,3.5,1.8,6.8,3.8,9.5.3.4.6.8.9,1.2,2.6,3.2,6.1,5.6,10.1,6.9.3.1.6.2.9.3.6.2,1.2.3,1.9.4.7.1,1.4.2,2.1.3,1.1.1,2.2.1,3.4,0,.5,0,1-.1,1.5-.2l475.9-67.4-30.7,53.5Z"/>
      <path class="cls-3" d="M540.67,610.33l-41.5,5.9-170.7,24.2-35.1,5-205.7,29.1c-15.1,2.1-29-8.3-31.2-23.4L.27,253.73c-2.1-15.1,8.3-29,23.4-31.1l15.5-2.2c-13.8,3.2-23.1,16.4-21.1,30.7l56.3,397.3c2.1,15.1,16.1,25.5,31.2,23.4l205.7-29.1,35.1-5,170.7-24.2,23.6-3.3v.1Z"/>
      <path class="cls-1" d="M708.47,402.33h-22.4c-1.3,0-2.6.1-3.8.3l-21.9-153.9c.5.5,1.3.6,2.1.1l22-16.6,24,170.1Z"/>
      <path class="cls-2" d="M682.17,402.64c-7.3,1.1-14.2,5.3-18.5,12.6l-71.1,123.1-475.9,67.4c-.5.1-1,.1-1.5.2-1.1.1-2.3.1-3.4,0-.7-.1-1.4-.2-2.1-.3-.6-.1-1.3-.3-1.9-.4-.3-.1-.6-.2-.9-.3-4-1.3-7.5-3.7-10.1-6.9-.3-.4-.6-.8-.9-1.2-1.9-2.7-3.2-5.9-3.8-9.5l-46.2-326.4c-.2-1.4-.3-2.9-.2-4.2v-.4c0-.2,0-.4.1-.6.2-1.5.4-2.9.9-4.2.6-1.9,1.5-3.8,2.6-5.4.7-1.1,1.5-2.1,2.4-3,.2-.2.4-.5.7-.7,1.4-1.3,2.9-2.5,4.6-3.4.6-.3,1.1-.6,1.7-.9.6-.3,1.2-.5,1.8-.7,1.2-.4,2.6-.7,3.9-.9l5.7-.8c2,6.2,7.8,11.1,15.2,11.1h141.4c12.3,0,20-13.3,13.8-24l-6-10.4,318.2-45.1,11.3,54.9c.2.9,1.1,1.3,1.9.9l18.3-9.3c.7-.3,1.5-.1,1.8.6l22.8,47.7c.7,1.4,2.8.7,2.5-.8l-13.2-66.5c-.2-.8-1-1.3-1.8-1l-21.6,7.8c-.6.2-1.3-.1-1.7-.7l-16.2-34.1,68.6-9.7c3.9-.6,7.8,0,11.2,1.4l-14.2,107.2c-.5,3.5,4.5,4.8,5.8,1.5l25.7-64.4,6.2,43.7c-.5.8-.3,1.7.3,2.2l21.8,153.9Z"/>
      <path class="cls-4" d="M45.77,255.63c0,.4-.1.7-.1,1v-.1c.1-.3.1-.7.1-.9Z"/>
      <path class="cls-3" d="M45.77,255.93c0,.2,0,.4-.1.6v.1c.1-.2.1-.5.1-.7Z"/>
      <path class="cls-4" d="M660.37,248.73c-.6-.5-.9-1.4-.3-2.2l.3,2.2Z"/>
      <path class="cls-3" d="M660.07,246.53c-.5.8-.3,1.7.3,2.2l-.3-2.2Z"/>
      <path class="cls-3" d="M399.87,610.33c7.9,0,14.3-6.4,14.3-14.3s-6.4-14.3-14.3-14.3-14.3,6.4-14.3,14.3,6.4,14.3,14.3,14.3Z"/>
      <path class="cls-3" d="M311.87,344.83c3.4,2.6,4.1,7.5,1.5,10.9-1.3,1.7-3.2,2.8-5.1,3-2,.3-4.1-.2-5.8-1.5l-29-21.8-21.8,29c-2.6,3.5-7.5,4.2-10.9,1.6-1.7-1.3-2.8-3.2-3-5.1-.3-2,.2-4.1,1.5-5.8l21.8-29-29-21.8c-3.4-2.6-4.1-7.5-1.5-10.9,1.3-1.7,3.2-2.8,5.2-3,2-.3,4.1.2,5.8,1.5l29,21.8,21.8-29c2.6-3.5,7.5-4.1,11-1.5,1.7,1.3,2.8,3.2,3,5.1.3,2-.2,4.1-1.5,5.8l-21.8,29,28.8,21.7Z"/>
      <path class="cls-3" d="M488.77,330.93c-1.3,1.7-3.2,2.8-5.1,3-2,.3-4.1-.2-5.8-1.5l-29-21.8-21.8,29c-2.6,3.5-7.5,4.2-10.9,1.6-1.7-1.3-2.8-3.2-3-5.1-.3-2,.2-4.1,1.5-5.8l21.8-29-29-21.8c-3.4-2.6-4.1-7.5-1.5-10.9,1.3-1.7,3.2-2.8,5.2-3,2-.2,4.1.2,5.8,1.5l29,21.8,21.8-29c2.6-3.5,7.5-4.1,11-1.5,1.7,1.3,2.8,3.2,3,5.1.3,2-.2,4.1-1.5,5.8l-21.8,29,29,21.8c3.2,2.5,3.9,7.4,1.3,10.8Z"/>
      <path class="cls-3" d="M498.87,416.83c.7,4-2.4,7.3-6,8-2.6.5-5.2,1.1-7.8,1.6-14.4,3-28.9,6-43.3,9l-19.5,3.9c-23.9,4.8-47.8,9.5-71.7,14.1-30.5,5.8-60.9,11.5-91.4,16.9-3.9.7-7.3-2.4-8-6-.7-3.9,2.4-7.4,6-8,17.1-3.1,34.2-6.2,51.3-9.4,30.5-5.7,60.9-11.5,91.3-17.5,6.5-1.3,12.9-2.6,19.3-3.9,21-4.2,41.9-8.5,62.8-12.9,3-.6,6-1.2,9-1.9,3.8-.8,7.3,2.5,8,6.1Z"/>
      <path class="cls-3" d="M463.47,475.63c-17.3,4-34.5-6.8-38.4-24.1l-2.8-12.3c6.5-1.3,13-2.6,19.5-3.9,14.5-2.9,28.9-5.9,43.3-9l2.5,10.8c3.9,17.3-6.8,34.6-24.1,38.5Z"/>
      <path class="cls-3" d="M346.37,637.74v79.1h-35.1v-74.1l35.1-5Z"/>
      <path class="cls-1" d="M517.07,613.54v103.3h-170.7v-79.1l170.7-24.2Z"/>
      <path class="cls-3" d="M288.67,716.84h308.4c4.5,0,8.2,3.7,8.2,8.2v20c0,4.5-3.7,8.2-8.2,8.2h-308.4c-4.5,0-8.2-3.7-8.2-8.2v-20c0-4.6,3.7-8.2,8.2-8.2Z"/>
      <path class="cls-3" d="M685.77,122.93l-12.7,31.7-19.3,48.3-25.7,64.4c-1.3,3.3-6.3,2-5.8-1.5l14.2-107.6,1.7-12.6c.2-1.7-1-3.2-2.7-3.4l-25.7-2.7-21.1-2.2c-2-.2-3.2-2.3-2.5-4.1L637.57,1.93c1.3-3.3,6.3-2.1,5.8,1.5l-13.5,100c-.2,1.5.8,3,2.3,3.4l51.2,12.1c2.1.3,3.1,2.3,2.4,4Z"/>
      <path class="cls-3" d="M709.57,172.73c-.5.7-.5,1.6.1,2.2l20.5,20.1c.7.7.7,1.9-.2,2.5l-45.7,34.6-22,16.6c-.7.5-1.5.4-2.1-.1-.6-.5-.9-1.4-.3-2.2,0,0,0-.1.1-.1l22.3-27.9,19-23.7c.6-.7.4-1.8-.3-2.4l-20.5-15.5c-.9-.7-.9-2,0-2.6l61-46.9c1.5-1.2,3.5.8,2.3,2.4l-34.2,43Z"/>
      <path class="cls-3" d="M608.77,261.93l-22.8-47.7c-.3-.7-1.1-1-1.8-.6l-18.3,9.3c-.8.4-1.7-.1-1.9-.9l-11.3-54.9-1.1-5.4c-.3-1.5,1.8-2.2,2.5-.8l2.7,5.6,16.2,34.1c.3.6,1,.9,1.7.7l21.6-7.8c.8-.3,1.6.2,1.8,1l13.2,66.5c.3,1.6-1.8,2.3-2.5.9Z"/>
      <path class="cls-1" d="M80.07,753.23h712.6c6.1,0,11.1,5,11.1,11.1v11.2c0,6.1-5,11.1-11.1,11.1H80.07c-6.1,0-11.1-5-11.1-11.1v-11.2c0-6.2,4.9-11.1,11.1-11.1Z"/>
      <path class="cls-3" d="M584.17,630.44h24.4c-19.8,0-32.2-21.5-22.3-38.7l101.8-176.5c5-8.6,13.6-12.9,22.3-12.9h-24.3c-8.7,0-17.3,4.3-22.3,12.9l-101.9,176.5c-10,17.2,2.4,38.7,22.3,38.7Z"/>
      <path class="cls-3" d="M608.57,630.44h203.8c19.8,0,32.2-21.5,22.3-38.7l-101.9-176.5c-5-8.6-13.6-12.9-22.3-12.9s-17.3,4.3-22.3,12.9l-102,176.5c-9.9,17.2,2.5,38.7,22.4,38.7ZM598.07,598.64l102-176.5c3.1-5.4,8.3-6,10.4-6s7.3.6,10.4,6l101.9,176.5c3.1,5.4,1,10.2,0,12s-4.2,6-10.4,6h-203.8c-6.3,0-9.4-4.2-10.4-6-1.1-1.8-3.2-6.6-.1-12Z"/>
      <path class="cls-5" d="M598.17,610.63c1,1.8,4.2,6,10.4,6h203.8c6.3,0,9.4-4.2,10.4-6,1-1.8,3.1-6.6,0-12l-101.9-176.5c-3.1-5.4-8.3-6-10.4-6s-7.3.6-10.4,6l-102,176.5c-3.1,5.4-1,10.2.1,12ZM723.27,470.63l-2.8,84.2h-20l-2.8-84.2h25.6ZM696.97,580.73c0-3.7,1.2-6.8,3.7-9.2,2.5-2.4,5.7-3.6,9.8-3.6s7.2,1.2,9.7,3.6c2.5,2.4,3.7,5.5,3.7,9.1s-1.2,6.7-3.7,9.1-5.7,3.6-9.7,3.6-7.3-1.2-9.8-3.6c-2.5-2.3-3.7-5.4-3.7-9Z"/>
      <path class="cls-3" d="M696.97,580.74c0,3.7,1.2,6.7,3.7,9.1,2.5,2.4,5.7,3.6,9.8,3.6s7.2-1.2,9.7-3.6c2.5-2.4,3.7-5.4,3.7-9.1s-1.2-6.7-3.7-9.1-5.7-3.6-9.7-3.6-7.3,1.2-9.8,3.6c-2.5,2.3-3.7,5.4-3.7,9.1Z"/>
      <path class="cls-3" d="M697.67,470.63l2.8,84.1h20l2.8-84.1h-25.6Z"/>
      <path class="cls-4" d="M693.87,515.04c.3-.6.6-1.1.8-1.7-.2.6-.5,1.2-.8,1.7Z"/>
      <path class="cls-4" d="M696.37,506.73c-.1.8-.2,1.5-.3,2.2.1-.7.2-1.5.3-2.2Z"/>
      <path class="cls-3" d="M696.37,506.73c-.1.8-.2,1.5-.3,2.2.1-.7.2-1.5.3-2.2Z"/>
      <path class="cls-3" d="M85.27,246.53h15.1c-12.3,0-20-13.3-13.8-24l63.1-109.4c3.1-5.3,8.4-8,13.8-8h-15.1c-5.4,0-10.8,2.7-13.8,8l-63.1,109.4c-6.1,10.7,1.6,24,13.8,24Z"/>
      <path class="cls-3" d="M100.47,246.53h126.3c12.3,0,20-13.3,13.8-24l-63.1-109.4c-3.1-5.3-8.4-8-13.8-8s-10.8,2.7-13.8,8l-63.1,109.4c-6.3,10.7,1.4,24,13.7,24ZM93.97,226.83l63.1-109.4c1.9-3.4,5.2-3.7,6.4-3.7,1.3,0,4.5.4,6.4,3.7l63.1,109.3c1.9,3.4.6,6.3,0,7.5-.6,1.1-2.6,3.7-6.5,3.7h-126c-3.9,0-5.8-2.6-6.4-3.7-.7-1-2-4-.1-7.4Z"/>
      <path class="cls-6" d="M93.97,234.34c.6,1.1,2.6,3.7,6.4,3.7h126.3c3.9,0,5.8-2.6,6.5-3.7.6-1.1,1.9-4.1,0-7.5l-63.1-109.3c-1.9-3.4-5.2-3.7-6.4-3.7-1.3,0-4.5.4-6.4,3.7l-63.1,109.4c-2.1,3.3-.8,6.3-.2,7.4ZM171.57,147.54l-1.8,52.1h-12.4l-1.8-52.1h16ZM155.27,215.74c0-2.3.8-4.2,2.3-5.7s3.6-2.2,6.1-2.2,4.5.8,6,2.2,2.3,3.4,2.3,5.7-.8,4.1-2.3,5.6-3.6,2.2-6,2.2-4.5-.7-6.1-2.2c-1.6-1.4-2.3-3.3-2.3-5.6Z"/>
      <path class="cls-3" d="M155.27,215.74c0,2.3.8,4.1,2.3,5.6s3.6,2.2,6.1,2.2,4.5-.7,6-2.2,2.3-3.4,2.3-5.6-.8-4.2-2.3-5.7-3.6-2.2-6-2.2-4.5.7-6.1,2.2-2.3,3.4-2.3,5.7Z"/>
      <path class="cls-3" d="M155.67,147.54l1.7,52.2h12.4l1.8-52.2h-15.9Z"/>
    </g>
  </g>
</svg>