<svg width="40" height="40" viewBox="0 0 48 48" fill="none" xmlns="http://www.w3.org/2000/svg">
<path class="copy" fill-rule="evenodd" clip-rule="evenodd" d="M1.08993 5.46009C0 7.59921 0 10.3995 0 16V32C0 37.6005 0 40.4008 1.08993 42.5399C2.04867 44.4215 3.57847 45.9513 5.46009 46.9101C7.59921 48 10.3995 48 16 48H32C37.6005 48 40.4008 48 42.5399 46.9101C44.4215 45.9513 45.9513 44.4215 46.9101 42.5399C48 40.4008 48 37.6005 48 32V16C48 10.3995 48 7.59921 46.9101 5.46009C45.9513 3.57847 44.4215 2.04867 42.5399 1.08993C40.4008 0 37.6005 0 32 0H16C10.3995 0 7.59921 0 5.46009 1.08993C3.57847 2.04867 2.04867 3.57847 1.08993 5.46009ZM14 13C15.6569 13 17 14.3431 17 16V32C17 33.6569 15.6569 35 14 35C12.3431 35 11 33.6569 11 32V16C11 14.3431 12.3431 13 14 13ZM27 19V29H29C30.6569 29 32 27.6569 32 26V22C32 20.3431 30.6569 19 29 19H27ZM21 17C21 14.7909 22.7909 13 25 13H29C33.9706 13 38 17.0294 38 22V26C38 30.9706 33.9706 35 29 35H25C22.7909 35 21 33.2091 21 31V17Z" fill="white"/>
</svg>
