<svg width="61" height="60" viewBox="0 0 61 60" fill="none" xmlns="http://www.w3.org/2000/svg">
<rect x="0.5" width="60" height="60" rx="12" fill="#3B82F6" style="fill:#3B82F6;fill:color(display-p3 0.2314 0.5098 0.9647);fill-opacity:1;"/>
<path fill-rule="evenodd" clip-rule="evenodd" d="M7.25284 30.2196C17.7521 29.5865 28.2248 29.4155 38.678 29.6809C38.8417 29.9621 38.8048 30.0944 38.7956 30.4074C28.3148 30.2822 17.7971 30.626 7.22522 31.4152L7.25284 30.2205V30.2196ZM40.0291 29.7197C41.19 29.7505 42.3499 29.7902 43.52 29.8369V30.5008C42.3775 30.47 41.235 30.4462 40.0925 30.4303C40.0925 30.1261 40.0834 29.9145 40.0291 29.7197ZM44.7894 29.8916C46.0679 29.9463 47.3464 30.0009 48.6249 30.0715V30.6648C47.3464 30.6181 46.0679 30.5714 44.7894 30.5317V29.8916ZM49.9393 30.1411C51.4622 30.2275 52.9852 30.321 54.5 30.4224L54.1645 30.9373C52.7592 30.8597 51.3538 30.7892 49.9485 30.7266C49.9485 30.5308 49.9485 30.336 49.9393 30.1402V30.1411Z" fill="white" style="fill:white;fill-opacity:1;"/>
<path fill-rule="evenodd" clip-rule="evenodd" d="M26.6005 43.1629V39.9524C26.6005 39.5697 26.4195 39.3819 26.0656 39.3819H25.6933V43.7325H26.0656C26.4195 43.7325 26.6005 43.5456 26.6005 43.162V43.1629ZM29.4655 42.9522C29.4655 43.5297 29.3663 43.9671 29.1576 44.2801C28.8313 44.7562 28.2238 44.9987 27.3349 44.9987H22.8284V33.5332H29.1842V34.7985H25.6933V38.1184H27.3349C28.2227 38.1184 28.8303 38.3608 29.1576 38.8449C29.3663 39.1333 29.4655 39.5794 29.4655 40.1649V42.9531V42.9522Z" fill="white" style="fill:white;fill-opacity:1;"/>
<path fill-rule="evenodd" clip-rule="evenodd" d="M37.5263 44.9987H34.9334L34.6798 41.9522H33.4289L33.1844 44.9987H30.5916L31.9693 33.5332H36.1404L37.5273 44.9987H37.5263ZM33.7367 38.0707H34.3801L34.5887 40.6869H33.5281L33.7367 38.0707ZM33.8001 37.2666H34.3167L34.1356 34.9467H33.9812L33.8001 37.2666Z" fill="white" style="fill:white;fill-opacity:1;"/>
<path fill-rule="evenodd" clip-rule="evenodd" d="M13.0737 42.953C13.0737 43.5306 12.9734 43.9679 12.774 44.281C12.4477 44.7571 11.8494 44.9996 10.9697 44.9996H8.61212C7.73249 44.9996 7.13415 44.758 6.80787 44.281C6.60842 43.9838 6.5 43.5385 6.5 42.953V35.5798C6.5 35.0022 6.60842 34.5649 6.80787 34.2598C7.13415 33.7757 7.73249 33.5332 8.61212 33.5332H10.9697C11.8494 33.5332 12.4477 33.7757 12.774 34.2598C12.9734 34.5481 13.0737 34.9943 13.0737 35.5798V37.2048H10.2353V35.1742C10.2353 34.9237 10.0901 34.7985 9.79143 34.7985C9.6646 34.7985 9.56438 34.8223 9.47437 34.877C9.38334 34.9317 9.34754 35.0331 9.34754 35.1742V43.3595C9.34754 43.6091 9.49277 43.7343 9.79143 43.7343C9.95406 43.7343 10.0635 43.6946 10.1361 43.6091C10.1996 43.5156 10.2364 43.4371 10.2364 43.3595V40.9849H13.0747V42.953H13.0737Z" fill="white" style="fill:white;fill-opacity:1;"/>
<path fill-rule="evenodd" clip-rule="evenodd" d="M21.4781 33.5332V44.9987H18.6951V39.3519L17.3163 42.7732V44.9987H14.524V33.5332H17.3163V39.18L18.6951 35.7588V33.5332H21.4781Z" fill="white" style="fill:white;fill-opacity:1;"/>
<path fill-rule="evenodd" clip-rule="evenodd" d="M54.499 33.5332V44.9987H51.7067V39.3519L50.3382 42.7732V44.9987H47.5449V33.5332H50.3382V39.18L51.7067 35.7588V33.5332H54.499Z" fill="white" style="fill:white;fill-opacity:1;"/>
<path fill-rule="evenodd" clip-rule="evenodd" d="M38.7322 44.9987V43.5615H38.8682C39.1045 43.5615 39.2855 43.4759 39.4124 43.304C39.5484 43.132 39.6118 42.8358 39.6118 42.4293V33.5332H45.6587V43.5615H46.1845V44.9987H38.7311H38.7322ZM43.0485 43.5615V34.7747H42.2231L42.2415 43.5694L43.0485 43.5615Z" fill="white" style="fill:white;fill-opacity:1;"/>
<path fill-rule="evenodd" clip-rule="evenodd" d="M39.3489 22.245C40.0741 23.2996 40.5272 24.2051 40.8719 25.4943C40.878 25.5307 40.8991 25.5542 40.9353 25.5648L43.5016 26.4704C43.5742 26.4942 43.6284 26.5568 43.6284 26.6503L43.6008 27.2366C41.6155 27.1581 39.5749 27.0717 37.5896 27.0338C37.3718 25.2835 36.4563 23.7069 35.1052 22.4875C33.3736 20.9179 30.8983 19.9409 28.2329 19.9498C25.549 19.9647 23.128 20.9338 21.4148 22.4804C20.7438 23.0818 20.1812 23.7775 19.7557 24.5349C18.9579 24.5428 18.1775 24.6054 17.4523 24.7377C17.7786 23.8083 18.2409 23.0192 18.8393 22.2379C19.0745 21.9408 19.0479 21.9487 18.8301 21.6754L17.4973 20.0274C17.3889 19.8942 17.4339 19.8325 17.5423 19.7381C18.2859 19.098 19.0479 18.5116 20.0268 17.7462C20.1536 17.6448 20.2354 17.6448 20.3715 17.7304L22.1573 18.8943C22.4386 19.0742 22.456 19.0345 22.8283 18.8705C23.8797 18.3159 25.013 17.8318 26.2373 17.636C26.6455 17.5655 26.6086 17.5584 26.6813 17.2295L27.1528 15.1521C27.1712 15.0428 27.2162 15.0119 27.3522 15.0119C28.4589 14.996 29.5922 14.996 30.7347 15.0119C30.8799 15.0119 30.9249 15.0357 30.9618 15.1521L31.4783 17.1828C31.5601 17.5029 31.5509 17.5029 31.9314 17.6131C32.9828 17.9102 34.289 18.4481 35.2044 18.9719C35.4939 19.1359 35.6391 19.128 35.8846 18.9719L37.9701 17.7842C38.1246 17.6907 38.2064 17.644 38.369 17.7692C39.1945 18.4173 39.892 19.0107 40.7082 19.7373C40.8351 19.8466 40.8351 19.9092 40.7451 20.0344L39.3581 21.7759C39.2037 21.9787 39.1863 22.0104 39.3489 22.245Z" fill="white" style="fill:white;fill-opacity:1;"/>
<path fill-rule="evenodd" clip-rule="evenodd" d="M14.3604 28.2596C14.3696 27.9007 14.388 27.4157 14.4054 27.1345C14.4504 26.4705 14.659 26.3691 16.2373 26.3691L16.9809 25.2986C20.7438 24.3305 26.356 25.549 27.8248 25.9547C27.9516 25.9935 27.8432 25.9785 27.8882 26.1107C25.2586 25.587 22.6023 25.2281 19.9092 25.4776L19.6013 26.243C23.708 26.1883 27.8524 26.392 31.9048 27.1027C32.2219 27.227 32.3314 27.5868 32.4122 27.8134C27.1262 26.9308 31.0978 27.3999 19.8632 27.9695C18.3126 28.055 15.91 28.1643 14.3594 28.2578L14.3604 28.2596Z" fill="white" style="fill:white;fill-opacity:1;"/>
</svg>
