<svg width="190" height="130" viewBox="0 0 190 130" fill="none" xmlns="http://www.w3.org/2000/svg">
<path fill-rule="evenodd" clip-rule="evenodd" d="M2.97987 65.9517C44.5395 63.2083 85.9938 62.4671 127.371 63.6171C128.019 64.836 127.873 65.4091 127.837 66.7655C86.35 66.2229 44.7176 67.7131 2.87054 71.1328L2.97987 65.9555V65.9517ZM132.719 63.7852C137.315 63.919 141.906 64.0909 146.537 64.2934V67.1705C142.015 67.0368 137.493 66.9336 132.97 66.8649C132.97 65.5467 132.934 64.6296 132.719 63.7852ZM151.562 64.5303C156.623 64.7672 161.684 65.0041 166.744 65.3097V67.8812C161.684 67.6787 156.623 67.4762 151.562 67.3043V64.5303ZM171.947 65.6116C177.975 65.986 184.004 66.3911 190 66.8305L188.672 69.0618C183.109 68.7256 177.546 68.4199 171.983 68.1487C171.983 67.3004 171.983 66.456 171.947 65.6078V65.6116Z" fill="#2570B1" style="fill:#2570B1;fill:color(display-p3 0.1451 0.4392 0.6941);fill-opacity:1;"/>
<path fill-rule="evenodd" clip-rule="evenodd" d="M79.5645 122.041V108.129C79.5645 106.47 78.8478 105.656 77.447 105.656H75.9732V124.51H77.447C78.8478 124.51 79.5645 123.7 79.5645 122.038V122.041ZM90.9048 121.128C90.9048 123.631 90.5121 125.526 89.6861 126.883C88.3946 128.946 85.9897 129.997 82.4714 129.997H64.6329V80.3105H89.7914V85.7939H75.9732V100.181H82.4714C85.9856 100.181 88.3906 101.231 89.6861 103.329C90.5121 104.579 90.9048 106.512 90.9048 109.049V121.132V121.128Z" fill="#2570B1" style="fill:#2570B1;fill:color(display-p3 0.1451 0.4392 0.6941);fill-opacity:1;"/>
<path fill-rule="evenodd" clip-rule="evenodd" d="M122.812 129.997H112.549L111.545 116.795H106.593L105.626 129.997H95.3624L100.816 80.3105H117.326L122.816 129.997H122.812ZM107.812 99.9742H110.359L111.184 111.312H106.986L107.812 99.9742ZM108.063 96.4893H110.108L109.391 86.4358H108.78L108.063 96.4893Z" fill="#2570B1" style="fill:#2570B1;fill:color(display-p3 0.1451 0.4392 0.6941);fill-opacity:1;"/>
<path fill-rule="evenodd" clip-rule="evenodd" d="M26.0208 121.132C26.0208 123.635 25.6241 125.53 24.8346 126.886C23.543 128.95 21.1745 130.001 17.6927 130.001H8.36046C4.87861 130.001 2.51018 128.954 1.21865 126.886C0.429163 125.599 0 123.669 0 121.132V89.1794C0 86.6766 0.429163 84.7813 1.21865 83.4592C2.51018 81.3614 4.87861 80.3105 8.36046 80.3105H17.6927C21.1745 80.3105 23.543 81.3614 24.8346 83.4592C25.6241 84.7087 26.0208 86.6422 26.0208 89.1794V96.2218H14.7857V87.4217C14.7857 86.3365 14.2108 85.7939 13.0286 85.7939C12.5266 85.7939 12.1298 85.8971 11.7736 86.134C11.4132 86.3709 11.2715 86.8103 11.2715 87.4217V122.893C11.2715 123.975 11.8464 124.517 13.0286 124.517C13.6723 124.517 14.1056 124.345 14.393 123.975C14.6441 123.57 14.7898 123.23 14.7898 122.893V112.603H26.0249V121.132H26.0208Z" fill="#2570B1" style="fill:#2570B1;fill:color(display-p3 0.1451 0.4392 0.6941);fill-opacity:1;"/>
<path fill-rule="evenodd" clip-rule="evenodd" d="M59.2887 80.3105V129.997H48.2723V105.526L42.8147 120.352V129.997H31.7618V80.3105H42.8147V104.781L48.2723 89.9551V80.3105H59.2887Z" fill="#2570B1" style="fill:#2570B1;fill:color(display-p3 0.1451 0.4392 0.6941);fill-opacity:1;"/>
<path fill-rule="evenodd" clip-rule="evenodd" d="M189.996 80.3105V129.997H178.943V105.526L173.526 120.352V129.997H162.469V80.3105H173.526V104.781L178.943 89.9551V80.3105H189.996Z" fill="#2570B1" style="fill:#2570B1;fill:color(display-p3 0.1451 0.4392 0.6941);fill-opacity:1;"/>
<path fill-rule="evenodd" clip-rule="evenodd" d="M127.586 129.997V123.768H128.124C129.059 123.768 129.776 123.398 130.278 122.653C130.817 121.908 131.068 120.624 131.068 118.862V80.3105H155.003V123.768H157.084V129.997H127.582H127.586ZM144.671 123.768V85.6907H141.404L141.477 123.803L144.671 123.768Z" fill="#2570B1" style="fill:#2570B1;fill:color(display-p3 0.1451 0.4392 0.6941);fill-opacity:1;"/>
<path fill-rule="evenodd" clip-rule="evenodd" d="M130.027 31.3965C132.898 35.9666 134.691 39.8909 136.056 45.4774C136.08 45.6354 136.163 45.7372 136.306 45.7831L146.465 49.7074C146.752 49.8106 146.967 50.0819 146.967 50.4869L146.857 53.028C138.999 52.6879 130.922 52.3134 123.063 52.1491C122.201 44.5641 118.577 37.732 113.229 32.4473C106.375 25.6457 96.5769 21.4118 86.0261 21.45C75.4024 21.515 65.8192 25.7144 59.0377 32.4167C56.3818 35.0227 54.155 38.0376 52.4708 41.32C49.3128 41.3544 46.2237 41.6257 43.3532 42.1988C44.6447 38.1713 46.4746 34.7514 48.8431 31.3659C49.7743 30.0782 49.6691 30.1126 48.8067 28.928L43.5313 21.7863C43.1021 21.2093 43.2802 20.9418 43.7094 20.5329C46.6528 17.7588 49.6691 15.2177 53.5436 11.901C54.0457 11.4615 54.3695 11.4615 54.908 11.8322L61.977 16.8761C63.0904 17.6556 63.1592 17.4837 64.6329 16.7729C68.7949 14.3694 73.2809 12.2716 78.1271 11.4233C79.7426 11.1176 79.5968 11.0871 79.8843 9.66179L81.7507 0.659135C81.8236 0.185313 82.0017 0.0515855 82.5401 0.0515855C86.9208 -0.0171952 91.4068 -0.0171952 95.9291 0.0515855C96.504 0.0515855 96.6822 0.154743 96.8279 0.659135L98.8725 9.45925C99.1964 10.8463 99.1599 10.8463 100.666 11.324C104.828 12.6117 109.998 14.9426 113.622 17.2124C114.768 17.9231 115.343 17.8887 116.314 17.2124L124.569 12.0653C125.181 11.6602 125.505 11.4577 126.148 12.0003C129.416 14.8089 132.177 17.3805 135.408 20.5291C135.91 21.0029 135.91 21.2742 135.553 21.8168L130.063 29.3636C129.452 30.2425 129.383 30.3801 130.027 31.3965Z" fill="#2570B1" style="fill:#2570B1;fill:color(display-p3 0.1451 0.4392 0.6941);fill-opacity:1;"/>
<path fill-rule="evenodd" clip-rule="evenodd" d="M31.1141 57.4582C31.1505 55.903 31.2234 53.8014 31.2922 52.5824C31.4703 49.7051 32.2962 49.2657 38.5433 49.2657L41.4867 44.6268C56.3818 40.4312 78.5968 45.712 84.4107 47.4697C84.9127 47.6379 84.4836 47.5729 84.6618 48.1461C74.2526 45.8763 63.7382 44.3211 53.0781 45.4025L51.8594 48.7193C68.1148 48.4824 84.52 49.365 100.561 52.4449C101.816 52.9837 102.249 54.5427 102.569 55.5247C81.6455 51.6997 97.3664 53.7326 52.8958 56.2011C46.758 56.5717 37.2478 57.0455 31.11 57.4506L31.1141 57.4582Z" fill="#2570B1" style="fill:#2570B1;fill:color(display-p3 0.1451 0.4392 0.6941);fill-opacity:1;"/>
</svg>
