<svg width="20" height="20" viewBox="0 0 20 20" fill="none" xmlns="http://www.w3.org/2000/svg">
<path fill-rule="evenodd" clip-rule="evenodd" d="M13.0948 14.3441C11.8951 15.2771 10.3875 15.8327 8.75002 15.8327C4.838 15.8327 1.66669 12.6614 1.66669 8.74935C1.66669 4.83733 4.838 1.66602 8.75002 1.66602C12.662 1.66602 15.8334 4.83733 15.8334 8.74935C15.8334 10.3868 15.2778 11.8944 14.3448 13.0941L17.7084 16.4577C18.0535 16.8029 18.0535 17.3625 17.7084 17.7077C17.3632 18.0529 16.8035 18.0529 16.4584 17.7077L13.0948 14.3441ZM14.1667 8.74935C14.1667 11.7409 11.7416 14.166 8.75002 14.166C5.75848 14.166 3.33335 11.7409 3.33335 8.74935C3.33335 5.75781 5.75848 3.33268 8.75002 3.33268C11.7416 3.33268 14.1667 5.75781 14.1667 8.74935Z" fill="black" style="fill:black;fill-opacity:1;"/>
</svg>
